<svg width="194" height="48" viewBox="0 0 194 48" fill="none" xmlns="http://www.w3.org/2000/svg">
<path d="M18.2446 12.8601C18.1329 12.7057 18.0059 12.6243 17.8643 12.6243C17.7478 12.6243 17.6418 12.6786 17.573 12.7252C16.5001 13.6091 15.0323 17.3508 13.8291 22.2826L14.8939 22.2953C16.9977 22.3199 19.1694 22.3462 21.3169 22.381C20.7513 20.122 20.2156 18.1863 19.7253 16.623C19.0084 14.3386 18.5245 13.3156 18.2446 12.8601Z" fill="#003152"/>
<path d="M20.6324 3.35205C9.50515 3.35205 0.484863 12.8085 0.484863 24.4737C0.484863 36.139 9.50515 45.5954 20.6324 45.5954C31.7597 45.5954 40.78 36.139 40.78 24.4737C40.78 12.8085 31.7597 3.35205 20.6324 3.35205ZM35.1201 24.8571C35.1185 24.8588 35.1168 24.8597 35.1152 24.8614C35.0934 24.88 35.0715 24.897 35.0481 24.914C35.0408 24.9191 35.0335 24.925 35.0254 24.9301C35.01 24.9403 34.9938 24.9505 34.9785 24.9598C34.9639 24.9691 34.9493 24.9776 34.9348 24.9861C34.934 24.9869 34.9332 24.9869 34.9324 24.9878C34.7843 25.0692 34.6152 25.1159 34.4363 25.1159C34.4218 25.1159 24.8925 25.1159 24.8925 25.1159C24.9686 25.4475 25.052 25.8242 25.1426 26.2339C25.6653 28.6014 27.0554 34.8912 28.5312 34.8912L28.5604 34.8921L28.5766 34.8895H28.6049C29.7579 34.8895 30.3461 33.1421 31.6359 29.3131L31.6513 29.2664C31.8584 28.6514 32.0923 27.9575 32.3455 27.2238L32.4103 27.0363H32.4111C32.4766 26.8531 32.6449 26.7225 32.8432 26.7225C33.098 26.7225 33.3052 26.9396 33.3052 27.2068C33.3052 27.2552 33.2979 27.3018 33.2858 27.3459L33.2323 27.5343C33.098 27.9898 32.9548 28.6107 32.7897 29.3292C32.0211 32.6688 30.86 37.7142 27.8807 37.7142H27.8589C25.9339 37.6981 24.7817 34.4722 24.2897 33.0946C23.3697 30.5184 22.6739 27.7735 22.0023 25.115H13.2167L11.3929 31.2344L11.3662 31.2123C11.1995 31.4871 10.9066 31.6636 10.5837 31.6636C10.0748 31.6636 9.65808 31.2293 9.65565 30.6957L9.65727 30.6626L9.76731 29.9705C10.019 28.3978 10.3208 26.7657 10.6655 25.1159H6.95636L6.9426 25.1014C6.2694 24.9997 5.75236 24.377 5.75236 23.6509C5.75236 22.9392 6.23299 22.3327 6.89486 22.2097C6.95555 22.2012 7.07854 22.1902 7.32856 22.1902C7.38197 22.1902 7.44184 22.1902 7.509 22.1919C8.68468 22.2131 9.93237 22.2326 11.3006 22.2513C13.2369 14.0028 15.4798 9.81579 17.9679 9.80392C20.6373 9.80392 22.6181 16.1761 24.2032 22.4099L24.2096 22.4345C27.4664 22.5032 30.9376 22.6025 34.3125 22.8561L34.4541 22.8697C34.5084 22.8705 34.5618 22.8765 34.6135 22.8849L34.633 22.8866C34.6386 22.8875 34.6443 22.8892 34.65 22.8909C34.6532 22.8917 34.6556 22.8926 34.6589 22.8926C35.15 22.9961 35.5141 23.4473 35.5141 23.9902C35.5141 24.338 35.3604 24.651 35.1201 24.8571Z" fill="#003152"/>
<path d="M51.9603 29.7583L50.3631 33.8961H45.7227L54.552 12.29H58.6503L67.4489 33.8969H62.8384L61.2411 29.7591H51.9603V29.7583ZM56.5708 17.7545L53.5575 25.6205H59.6439L56.5708 17.7545Z" fill="#003152"/>
<path d="M93.6029 25.5891V33.8969H89.4148V25.9683C89.4148 23.5677 88.2998 22.2724 86.3417 22.2724C85.4678 22.2724 84.5033 22.6829 83.6294 23.9469C83.6901 24.4838 83.75 25.0207 83.75 25.5891V33.8969H79.5619V25.9683C79.5619 23.5677 78.4469 22.2724 76.458 22.2724C75.6448 22.2724 74.7402 22.778 73.8971 23.9782V33.8969H69.709V18.7657H73.8971V19.6818C74.8009 18.7971 75.7654 18.2915 77.4524 18.2915C79.2908 18.2915 80.9172 19.0498 82.0629 20.4393C83.5995 18.9548 85.0462 18.2915 87.3061 18.2915C90.8308 18.2915 93.6029 21.1663 93.6029 25.5891Z" fill="#003152"/>
<path d="M112.013 26.3465C112.013 30.7371 108.819 34.2116 104.842 34.2116C103.215 34.2116 101.858 33.7696 100.744 33.0113V41.1928H96.5562V18.7648H100.744V19.6495C101.859 18.8912 103.215 18.4492 104.842 18.4492C108.819 18.4501 112.013 21.8932 112.013 26.3465ZM107.885 26.3465C107.885 24.1037 106.318 22.1451 104.148 22.1451C102.913 22.1451 101.677 22.587 100.743 23.9137V28.7471C101.677 30.0424 102.913 30.4843 104.148 30.4843C106.318 30.4852 107.885 28.5579 107.885 26.3465Z" fill="#003152"/>
<path d="M118.551 33.8961H114.363V11.469H118.551V33.8961Z" fill="#003152"/>
<path d="M122.318 13.4275C122.318 11.943 123.433 10.8369 124.849 10.8369C126.235 10.8369 127.35 11.9422 127.35 13.4275C127.35 14.8806 126.235 15.9545 124.849 15.9545C123.433 15.9545 122.318 14.8806 122.318 13.4275ZM126.958 18.7656V33.8968H122.77V18.7656H126.958Z" fill="#003152"/>
<path d="M142.174 33.6756C140.426 34.2439 139.643 34.3703 138.287 34.3703C134.791 34.3703 132.502 31.7797 132.502 27.8633V22.4616H129.458V18.7657H132.502V13.364H136.66V18.7657H141.872V22.4616H136.66V27.8319C136.66 29.5378 137.654 30.3275 139.191 30.3275C139.974 30.3275 140.818 30.1383 141.631 29.9169L142.174 33.6756Z" fill="#003152"/>
<path d="M158.987 33.8963H154.799V32.8224C153.624 33.8013 152.298 34.3705 150.671 34.3705C146.874 34.3705 144.343 31.4957 144.343 27.1051V18.7659H148.531V26.6946C148.531 29.0951 149.676 30.3904 151.635 30.3904C152.69 30.3904 153.834 29.7271 154.799 28.4954V18.7659H158.987V33.8963Z" fill="#003152"/>
<path d="M176.765 33.8961H172.577V33.0114C171.462 33.7698 170.106 34.2117 168.479 34.2117C164.501 34.2117 161.278 30.7686 161.278 26.3144C161.278 21.9238 164.502 18.4485 168.479 18.4485C170.106 18.4485 171.462 18.8904 172.577 19.6488V11.469H176.765V33.8961ZM172.577 28.7481V23.9147C171.643 22.6194 170.407 22.1774 169.172 22.1774C166.973 22.1774 165.435 24.1047 165.435 26.3152C165.435 28.558 166.972 30.5167 169.172 30.5167C170.407 30.5167 171.643 30.0747 172.577 28.7481Z" fill="#003152"/>
<path d="M193.759 27.4527H183.123C183.455 29.2213 184.57 30.6116 186.859 30.6116C188.034 30.6116 188.848 30.2325 189.3 29.4741H193.669C192.886 32.3803 190.174 34.3703 186.769 34.3703C182.128 34.3703 178.995 30.8644 178.995 26.3466C178.995 21.6718 182.098 18.2915 186.648 18.2915C190.777 18.2915 193.85 21.3554 193.85 26.031C193.85 26.663 193.82 27.0099 193.759 27.4527ZM183.153 24.8621H189.691C189.45 22.9671 188.365 21.9246 186.678 21.9246C184.659 21.9246 183.544 23.1563 183.153 24.8621Z" fill="#003152"/>
</svg>
