<svg width="57" height="56" viewBox="0 0 57 56" fill="none" xmlns="http://www.w3.org/2000/svg">
<path d="M28 16L40 28L28 40L16 28L28 16Z" fill="#57B3DB"/>
<path d="M28.3335 33.25C31.233 33.25 33.5835 30.8995 33.5835 28C33.5835 25.1005 31.233 22.75 28.3335 22.75C25.434 22.75 23.0835 25.1005 23.0835 28C23.0835 30.8995 25.434 33.25 28.3335 33.25Z" stroke="#0E092A" stroke-width="2.2" stroke-linecap="round" stroke-linejoin="round"/>
<path d="M21.3335 17.5C24.233 17.5 26.5835 15.1495 26.5835 12.25C26.5835 9.35051 24.233 7 21.3335 7C18.434 7 16.0835 9.35051 16.0835 12.25C16.0835 15.1495 18.434 17.5 21.3335 17.5Z" stroke="#0E092A" stroke-width="2.2" stroke-linecap="round" stroke-linejoin="round"/>
<path d="M44.0835 28C46.983 28 49.3335 25.6495 49.3335 22.75C49.3335 19.8505 46.983 17.5 44.0835 17.5C41.184 17.5 38.8335 19.8505 38.8335 22.75C38.8335 25.6495 41.184 28 44.0835 28Z" stroke="#0E092A" stroke-width="2.2" stroke-linecap="round" stroke-linejoin="round"/>
<path d="M44.0835 45.5C46.983 45.5 49.3335 43.1495 49.3335 40.25C49.3335 37.3505 46.983 35 44.0835 35C41.184 35 38.8335 37.3505 38.8335 40.25C38.8335 43.1495 41.184 45.5 44.0835 45.5Z" stroke="#0E092A" stroke-width="2.2" stroke-linecap="round" stroke-linejoin="round"/>
<path d="M12.5835 47.25C15.483 47.25 17.8335 44.8995 17.8335 42C17.8335 39.1005 15.483 36.75 12.5835 36.75C9.684 36.75 7.3335 39.1005 7.3335 42C7.3335 44.8995 9.684 47.25 12.5835 47.25Z" stroke="#0E092A" stroke-width="2.2" stroke-linecap="round" stroke-linejoin="round"/>
<path d="M26.2118 23.2094L23.4556 17.0406" stroke="#0E092A" stroke-width="2.2" stroke-linecap="round" stroke-linejoin="round"/>
<path d="M39.0958 24.4125L33.3208 26.3375" stroke="#0E092A" stroke-width="2.2" stroke-linecap="round" stroke-linejoin="round"/>
<path d="M39.949 37.0343L32.4678 31.2156" stroke="#0E092A" stroke-width="2.2" stroke-linecap="round" stroke-linejoin="round"/>
<path d="M24.4178 31.4781L16.499 38.5219" stroke="#0E092A" stroke-width="2.2" stroke-linecap="round" stroke-linejoin="round"/>
</svg>
