<svg width="56" height="56" viewBox="0 0 56 56" fill="none" xmlns="http://www.w3.org/2000/svg">
<circle cx="12" cy="44" r="12" fill="#C9DB57"/>
<path d="M20.5624 13.4313C20.0393 12.4314 19.9228 11.2681 20.2372 10.1844C20.5516 9.10064 21.2726 8.1803 22.2495 7.61559C23.2265 7.05089 24.3838 6.88549 25.4798 7.15395C26.5758 7.42241 27.5257 8.10397 28.1311 9.05625L34.6936 20.4094" stroke="#0E092A" stroke-width="2.2" stroke-linecap="round" stroke-linejoin="round"/>
<path d="M14.744 20.825L11.244 14.7656C10.7209 13.7657 10.6045 12.6024 10.9189 11.5187C11.2333 10.435 11.9542 9.51465 12.9312 8.94994C13.9081 8.38524 15.0655 8.21984 16.1615 8.4883C17.2575 8.75676 18.2074 9.43832 18.8127 10.3906L26.2502 23.275" stroke="#0E092A" stroke-width="2.2" stroke-linecap="round" stroke-linejoin="round"/>
<path d="M33.6875 36.1594C33.1111 35.1659 32.7365 34.0685 32.585 32.9299C32.4336 31.7914 32.5084 30.6342 32.8051 29.5246C33.1018 28.415 33.6146 27.3749 34.3141 26.4639C35.0135 25.5528 35.8859 24.7888 36.8813 24.2157L34.6938 20.4094C34.1136 19.4028 33.9571 18.207 34.2586 17.085C34.5601 15.963 35.295 15.0068 36.3016 14.4266C37.3082 13.8464 38.504 13.6899 39.626 13.9914C40.748 14.2929 41.7042 15.0278 42.2844 16.0344L46.6594 23.625C48.98 27.6455 49.6085 32.4233 48.4065 36.9071C47.2045 41.391 44.2705 45.2138 40.25 47.5344C36.2295 49.8551 31.4518 50.4835 26.9679 49.2815C22.484 48.0795 18.6613 45.1455 16.3406 41.125L7.15315 25.2C6.86588 24.7016 6.6796 24.1515 6.60493 23.5811C6.53026 23.0107 6.56867 22.4312 6.71797 21.8756C7.0195 20.7536 7.75438 19.7974 8.76096 19.2172C9.76754 18.6371 10.9634 18.4805 12.0854 18.782C13.2073 19.0836 14.1636 19.8185 14.7438 20.825L19.5563 29.1594" stroke="#0E092A" stroke-width="2.2" stroke-linecap="round" stroke-linejoin="round"/>
<path d="M17.7406 52.5C14.7682 50.4499 12.2939 47.7587 10.5 44.625" stroke="#0E092A" stroke-width="2.2" stroke-linecap="round" stroke-linejoin="round"/>
<path d="M38.5 6.78129C40.4968 6.77588 42.4595 7.29926 44.1885 8.29823C45.9175 9.2972 47.3511 10.7361 48.3438 12.4688" stroke="#0E092A" stroke-width="2.2" stroke-linecap="round" stroke-linejoin="round"/>
</svg>
