<svg width="290" height="341" viewBox="0 0 290 341" fill="none" xmlns="http://www.w3.org/2000/svg">
<rect x="1.88846" y="1.78225" width="286.667" height="337.819" rx="16.6667" fill="white"/>
<path d="M28.9878 38.1766C31.2356 38.1766 32.7467 37.3455 33.54 36.08C33.9178 35.4189 34.1067 34.72 34.1067 33.9644C34.1067 32.4722 33.54 31.5655 32.6711 31.0178C31.8022 30.47 30.7067 30.1866 29.5922 29.96C28.4211 29.7144 27.3822 29.5066 26.74 29.0344C26.4378 28.8078 26.2867 28.4489 26.2867 27.9955C26.2867 27.0511 26.91 26.2578 28.5533 26.2578C30.4233 26.2578 31.16 26.9755 31.2544 28.5244H33.8233C33.7289 25.8233 32.1611 24.18 28.5911 24.18C26.4189 24.18 25.0211 24.9544 24.3033 26.1255C23.9822 26.7111 23.7933 27.3533 23.7933 28.0333C23.7933 29.5066 24.3411 30.3755 25.21 30.9233C26.0789 31.4522 27.1556 31.7166 28.2133 31.9433C29.4033 32.17 30.4989 32.3966 31.16 32.9066C31.4811 33.1522 31.6322 33.5489 31.6322 34.0211C31.6322 35.1166 30.82 36.0044 29.0256 36.0044C26.9289 36.0044 26.0222 35.0978 25.9656 33.2278H23.3211C23.3967 35.3622 24.0767 36.8355 25.72 37.5911C26.5511 37.9878 27.6278 38.1766 28.9878 38.1766ZM43.512 35.7211L43.7765 37.8933H45.7787V30.5644C45.7787 28.9966 45.212 27.8444 43.7953 27.24C43.0776 26.9189 42.1709 26.7678 40.9809 26.7678C37.8642 26.7678 36.0509 28.3922 35.8809 30.8666H38.4309C38.5065 29.4689 39.3187 28.6944 41.1131 28.6944C42.8131 28.6944 43.3987 29.2611 43.3987 30.1678C43.3987 31.0555 42.6242 31.32 40.6787 31.5655C39.3187 31.7733 38.5065 31.9244 37.8642 32.1511C37.562 32.2455 37.2409 32.3966 36.9387 32.6044C36.0509 33.1522 35.522 34.0589 35.522 35.2678C35.522 37.0433 36.712 38.1766 39.0731 38.1766C41.3209 38.1766 42.7753 37.1378 43.512 35.7211ZM39.9231 36.2689C38.7898 36.2689 38.2231 35.8155 38.2231 34.9089C38.2231 34.4366 38.4309 34.0589 38.8653 33.7755C39.3753 33.4544 39.9042 33.3033 41.2265 33.0955C42.2087 32.9444 42.9642 32.7178 43.4176 32.3966V32.9822C43.4176 34.0211 42.832 35.1166 41.7742 35.7778C41.2453 36.0989 40.6409 36.2689 39.9231 36.2689ZM48.1156 37.8933H50.59V23.3489H48.1156V37.8933ZM63.0923 34.6822H60.4289C60.0511 35.6266 59.2767 36.1366 57.9545 36.1366C56.16 36.1366 55.0645 35.1544 54.8567 33.3789H63.2434V32.2266C63.2434 30.8289 62.8656 29.4878 61.9967 28.4489C61.1278 27.41 59.8056 26.7678 57.9356 26.7678C55.65 26.7678 53.9878 27.7311 53.0811 29.4311C52.6278 30.3 52.4011 31.2633 52.4011 32.4344V32.6989C52.4011 36.0611 54.1956 38.1766 57.86 38.1766C60.7123 38.1766 62.4689 36.8922 63.0923 34.6822ZM57.9545 28.7322C59.6923 28.7322 60.5989 29.7711 60.7689 31.4333H54.8756C55.1589 29.7144 56.2356 28.7322 57.9545 28.7322ZM69.6159 38.1766C72.827 38.1766 74.3381 36.6466 74.3381 34.55C74.3381 33.3411 73.8281 32.6044 73.0159 32.17C72.2036 31.7355 71.2025 31.5655 70.2203 31.4144C69.1814 31.2633 68.2181 31.1311 67.6703 30.81C67.387 30.64 67.2548 30.3755 67.2548 30.0544C67.2548 29.2989 67.727 28.7511 69.2759 28.7511C70.7114 28.7511 71.4292 29.2233 71.5992 30.2811H74.1303C73.8281 28.1089 72.4114 26.7678 69.2948 26.7678C66.3103 26.7678 64.8181 28.2033 64.8181 30.2055C64.8181 31.4144 65.3281 32.1511 66.1403 32.5855C66.9525 33.02 67.9536 33.19 68.9359 33.3411C69.9748 33.4922 70.9192 33.6244 71.467 33.9455C71.7503 34.1155 71.8825 34.38 71.8825 34.7011C71.8825 35.57 71.2592 36.0989 69.6725 36.0989C68.1236 36.0989 67.2359 35.5889 67.0092 34.3044H64.327C64.6481 36.8355 66.2725 38.1766 69.6159 38.1766ZM84.4397 33.6433H87.1785C90.7485 33.6622 92.4297 31.83 92.4297 28.9966C92.4297 27.1833 91.6552 25.7666 90.0685 25.0111C89.2752 24.6144 88.293 24.4255 87.0841 24.4255H82.003V37.8933H84.4397V33.6433ZM84.4397 26.5411H87.0841C89.0297 26.5411 89.9552 27.5233 89.9552 28.9966C89.9552 30.64 88.9352 31.5278 87.1408 31.5278H84.4397V26.5411ZM104.264 34.6822H101.601C101.223 35.6266 100.449 36.1366 99.1264 36.1366C97.3319 36.1366 96.2364 35.1544 96.0286 33.3789H104.415V32.2266C104.415 30.8289 104.037 29.4878 103.169 28.4489C102.3 27.41 100.977 26.7678 99.1075 26.7678C96.8219 26.7678 95.1597 27.7311 94.253 29.4311C93.7997 30.3 93.573 31.2633 93.573 32.4344V32.6989C93.573 36.0611 95.3675 38.1766 99.0319 38.1766C101.884 38.1766 103.641 36.8922 104.264 34.6822ZM99.1264 28.7322C100.864 28.7322 101.771 29.7711 101.941 31.4333H96.0475C96.3308 29.7144 97.4075 28.7322 99.1264 28.7322ZM106.257 37.8933H108.694V32.8689C108.694 31.1689 108.977 30.2244 109.884 29.79C110.337 29.5633 110.979 29.45 111.848 29.45H112.925V26.9378H112.188C110.129 26.9378 109.015 27.7878 108.58 29.5822L108.259 27.0322H106.257V37.8933ZM118.469 29.1855H121.019V27.0322H118.469V26.9C118.469 25.71 118.583 25.1811 119.055 24.9733C119.282 24.8789 119.641 24.8222 120.094 24.8222H121.038V22.7822H119.754C117.166 22.7822 116.089 23.8211 116.089 26.5978V27.0322H114.182V29.1855H116.089V37.8933H118.451L118.469 29.1855ZM127.107 38.1766C129.317 38.1766 130.961 37.3078 131.905 35.6644C132.359 34.8522 132.585 33.87 132.585 32.68V32.3966C132.585 29.9978 131.603 28.3166 129.941 27.4289C129.129 26.9755 128.203 26.7678 127.107 26.7678C124.973 26.7678 123.292 27.6555 122.347 29.3178C121.875 30.1489 121.63 31.1878 121.63 32.3966V32.68C121.63 36.2311 123.594 38.1766 127.107 38.1766ZM127.107 36.0044C125.256 36.0044 124.161 34.7955 124.161 32.6422V32.3966C124.161 30.0922 125.351 28.8833 127.126 28.8833C128.921 28.8833 130.073 30.1678 130.073 32.3966V32.6422C130.073 34.7955 128.977 36.0044 127.107 36.0044ZM134.48 37.8933H136.916V32.8689C136.916 31.1689 137.2 30.2244 138.106 29.79C138.56 29.5633 139.202 29.45 140.071 29.45H141.148V26.9378H140.411C138.352 26.9378 137.238 27.7878 136.803 29.5822L136.482 27.0322H134.48V37.8933ZM145.292 37.8933V32.0755C145.292 30.2055 146.047 28.9211 147.672 28.9211C148.805 28.9211 149.429 29.45 149.674 30.2811C149.825 30.7155 149.882 31.1689 149.882 31.6789V37.8933H152.337V31.7355C152.337 30.0922 152.98 28.9211 154.604 28.9211C156.266 28.9211 156.871 30.0544 156.871 31.7733V37.8933H159.345V31.0933C159.345 28.3922 158.042 26.7678 155.492 26.7678C153.716 26.7678 152.526 27.6366 151.979 29.0344C151.506 27.6178 150.43 26.7678 148.56 26.7678C146.841 26.7678 145.707 27.6555 145.122 29.0155L144.895 27.0322H142.817V37.8933H145.292ZM168.946 35.7211L169.21 37.8933H171.213V30.5644C171.213 28.9966 170.646 27.8444 169.229 27.24C168.512 26.9189 167.605 26.7678 166.415 26.7678C163.298 26.7678 161.485 28.3922 161.315 30.8666H163.865C163.94 29.4689 164.753 28.6944 166.547 28.6944C168.247 28.6944 168.833 29.2611 168.833 30.1678C168.833 31.0555 168.058 31.32 166.113 31.5655C164.753 31.7733 163.94 31.9244 163.298 32.1511C162.996 32.2455 162.675 32.3966 162.373 32.6044C161.485 33.1522 160.956 34.0589 160.956 35.2678C160.956 37.0433 162.146 38.1766 164.507 38.1766C166.755 38.1766 168.209 37.1378 168.946 35.7211ZM165.357 36.2689C164.224 36.2689 163.657 35.8155 163.657 34.9089C163.657 34.4366 163.865 34.0589 164.299 33.7755C164.809 33.4544 165.338 33.3033 166.66 33.0955C167.643 32.9444 168.398 32.7178 168.852 32.3966V32.9822C168.852 34.0211 168.266 35.1166 167.208 35.7778C166.679 36.0989 166.075 36.2689 165.357 36.2689ZM175.987 37.8933V32.2266C175.987 30.2055 176.837 28.9211 178.688 28.9211C180.463 28.9211 181.03 30.0355 181.03 31.8111V37.8933H183.523V31.2066C183.523 28.5055 182.126 26.7678 179.5 26.7678C177.63 26.7678 176.402 27.7122 175.817 29.2044L175.59 27.0322H173.493V37.8933H175.987ZM190.802 38.1766C193.805 38.1766 195.902 36.76 196.147 33.5489V33.4922H193.559V33.5111C193.314 35.1733 192.407 36.0044 190.821 36.0044C189.007 36.0044 187.912 34.7955 187.912 32.6422V32.3966C187.912 30.0922 189.102 28.8833 190.839 28.8833C192.351 28.8833 193.314 29.6389 193.541 31.3389V31.3955H196.128V31.3578C195.883 28.1844 193.824 26.7678 190.821 26.7678C188.724 26.7678 187.024 27.6555 186.061 29.3178C185.588 30.1489 185.343 31.1878 185.343 32.3966V32.68C185.343 36.2311 187.326 38.1766 190.802 38.1766ZM208.208 34.6822H205.545C205.167 35.6266 204.393 36.1366 203.071 36.1366C201.276 36.1366 200.181 35.1544 199.973 33.3789H208.359V32.2266C208.359 30.8289 207.982 29.4878 207.113 28.4489C206.244 27.41 204.922 26.7678 203.052 26.7678C200.766 26.7678 199.104 27.7311 198.197 29.4311C197.744 30.3 197.517 31.2633 197.517 32.4344V32.6989C197.517 36.0611 199.312 38.1766 202.976 38.1766C205.828 38.1766 207.585 36.8922 208.208 34.6822ZM203.071 28.7322C204.808 28.7322 205.715 29.7711 205.885 31.4333H199.992C200.275 29.7144 201.352 28.7322 203.071 28.7322Z" fill="#181B21"/>
<rect x="23" y="52.8933" width="100" height="7.77778" rx="3.88889" fill="#F1F4F7"/>
<path d="M3 78.4492H287.444" stroke="#EBEBEB" stroke-width="1.55556"/>
<circle cx="43" cy="122.893" r="20" fill="#E7F9F0"/>
<path opacity="0.4" d="M49.3032 117.569H50.5625C50.3866 117.319 50.2014 117.088 50.0069 116.856L49.3032 117.569Z" fill="#2FB273"/>
<path opacity="0.4" d="M49.0347 115.875C48.8032 115.681 48.5718 115.496 48.3218 115.32V116.579L49.0347 115.875Z" fill="#2FB273"/>
<path opacity="0.4" d="M47.6272 118.959C47.5346 118.959 47.4512 118.94 47.3586 118.903C47.192 118.829 47.0531 118.699 46.979 118.523C46.942 118.44 46.9235 118.347 46.9235 118.255V114.551C46.9235 114.542 46.9327 114.533 46.9327 114.514C45.7383 113.959 44.4049 113.635 42.9975 113.635C37.8864 113.635 33.7383 117.783 33.7383 122.894C33.7383 128.005 37.8864 132.153 42.9975 132.153C48.1087 132.153 52.2568 128.005 52.2568 122.894C52.2568 121.486 51.9327 120.153 51.3679 118.949C51.3587 118.949 51.3494 118.959 51.3309 118.959H47.6272Z" fill="#2FB273"/>
<path d="M50.0161 116.856L52.7476 114.125C53.0162 113.856 53.0162 113.412 52.7476 113.144C52.4791 112.875 52.0347 112.875 51.7662 113.144L49.0347 115.875C49.3865 116.181 49.7106 116.514 50.0161 116.856Z" fill="#2FB273"/>
<path d="M48.3215 114.56C48.3215 114.181 48.0067 113.866 47.6271 113.866C47.2567 113.866 46.9604 114.162 46.9419 114.523C47.4234 114.755 47.8863 115.014 48.3215 115.319V114.56Z" fill="#2FB273"/>
<path d="M52.0255 118.264C52.0255 117.884 51.7106 117.569 51.331 117.569H50.5625C50.8681 118.005 51.1366 118.467 51.3588 118.949C51.7292 118.93 52.0255 118.634 52.0255 118.264Z" fill="#2FB273"/>
<path d="M44.6179 122.727L43.692 122.403V120.347H43.766C44.2383 120.347 44.6179 120.764 44.6179 121.273C44.6179 121.653 44.9327 121.968 45.3124 121.968C45.692 121.968 46.0068 121.653 46.0068 121.273C46.0068 119.995 45.0068 118.958 43.766 118.958H43.692V118.727C43.692 118.347 43.3772 118.032 42.9975 118.032C42.6179 118.032 42.3031 118.347 42.3031 118.727V118.958H42.0253C40.905 118.958 39.9883 119.903 39.9883 121.07C39.9883 122.421 40.7753 122.857 41.3772 123.07L42.3031 123.394V125.449H42.229C41.7568 125.449 41.3772 125.032 41.3772 124.523C41.3772 124.144 41.0624 123.829 40.6827 123.829C40.3031 123.829 39.9883 124.144 39.9883 124.523C39.9883 125.801 40.9883 126.838 42.229 126.838H42.3031V127.07C42.3031 127.449 42.6179 127.764 42.9975 127.764C43.3772 127.764 43.692 127.449 43.692 127.07V126.838H43.9698C45.0901 126.838 46.0068 125.894 46.0068 124.727C46.0068 123.366 45.2198 122.931 44.6179 122.727ZM41.8309 121.745C41.5161 121.634 41.3772 121.57 41.3772 121.06C41.3772 120.662 41.6735 120.338 42.0253 120.338H42.3031V121.903L41.8309 121.745ZM43.9698 125.44H43.692V123.875L44.1642 124.042C44.479 124.153 44.6179 124.218 44.6179 124.727C44.6179 125.116 44.3216 125.44 43.9698 125.44Z" fill="#2FB273"/>
<path d="M77.424 121.405H80.2462V118.916C83.3351 118.472 85.0017 116.494 84.9795 114.116C84.9795 112.338 84.2906 111.272 83.2684 110.583C82.224 109.938 80.9128 109.605 79.6684 109.338C78.2906 109.049 77.0462 108.805 76.3351 108.249C75.9573 107.961 75.7795 107.538 75.7795 107.005C75.7795 105.872 76.5128 104.983 78.424 104.983C80.5351 104.983 81.4462 105.827 81.5573 107.649H84.5795C84.4906 104.961 83.1351 103.161 80.2684 102.694V99.9605H77.4906V102.583C74.3351 102.916 72.8462 104.761 72.8462 107.049C72.8462 108.783 73.4906 109.827 74.5128 110.449C75.5351 111.094 76.8017 111.405 78.0462 111.672C79.4462 111.938 80.7573 112.205 81.4906 112.805C81.8684 113.138 82.0684 113.538 82.0684 114.138C82.0684 115.427 81.0684 116.449 78.9573 116.449C76.4906 116.449 75.4462 115.361 75.3795 113.161H72.2684C72.3573 116.494 73.7351 118.494 77.424 118.916V121.405ZM86.2958 118.672H98.8514V115.983H89.6958C89.8069 115.027 90.6292 114.405 91.7847 113.805C92.3847 113.538 93.0292 113.227 93.6736 112.938C94.9181 112.383 96.1625 111.761 97.2069 110.916C98.2292 110.049 98.8736 108.938 98.8736 107.361C98.8736 105.494 97.9403 104.027 96.1625 103.183C95.2736 102.761 94.1625 102.561 92.8514 102.561C88.7403 102.561 86.4736 104.449 86.4736 108.049V108.694H89.4514V108.183C89.4514 106.183 90.6069 105.072 92.8069 105.072C94.8069 105.072 95.8514 105.872 95.8514 107.516C95.8514 108.627 95.0069 109.361 93.7181 109.983C93.0736 110.316 92.4292 110.605 91.6736 110.938C90.3847 111.494 89.0736 112.116 88.0292 112.983C86.9625 113.849 86.2958 114.961 86.2958 116.538V118.672ZM101.359 120.583L101.404 122.027C103.826 121.694 104.937 120.183 104.937 117.761C104.937 115.916 104.404 115.294 103.004 115.294C101.626 115.294 101.07 115.716 101.07 117.116C101.07 118.538 101.537 118.827 102.67 118.827C102.826 118.827 102.959 118.805 103.115 118.783C102.959 119.827 102.382 120.405 101.359 120.583ZM113.486 119.005C117.886 119.005 120.108 116.383 120.108 111.405V110.072C120.108 107.205 119.286 104.872 117.33 103.538C116.308 102.849 115.041 102.538 113.375 102.538C110.841 102.538 108.952 103.583 107.93 105.249C107.397 106.094 107.152 107.005 107.152 108.049C107.152 110.338 108.175 111.783 109.864 112.472C110.708 112.827 111.686 113.005 112.797 113.005C114.819 113.005 116.308 112.316 117.175 111.161V111.338C117.175 114.672 116.019 116.405 113.464 116.405C111.73 116.383 110.575 115.538 110.397 113.983H107.352C107.597 117.383 109.708 119.005 113.486 119.005ZM113.419 110.694C111.486 110.694 110.241 109.849 110.241 108.072C110.241 106.294 111.441 105.138 113.441 105.138C115.73 105.138 116.841 106.383 117.108 108.672C116.552 109.872 115.086 110.694 113.419 110.694ZM128.178 118.983C132.4 118.983 134.711 117.338 134.711 114.361C134.711 112.338 133.734 111.116 132.178 110.561C133.578 110.027 134.378 108.916 134.378 107.138C134.378 104.249 132.089 102.561 128.245 102.561C124.423 102.561 122.178 104.272 122.178 107.138C122.178 108.961 122.911 110.049 124.289 110.583C122.711 111.205 121.711 112.494 121.711 114.361C121.711 117.405 123.956 118.983 128.178 118.983ZM128.534 109.605H127.889C125.956 109.605 125.067 108.805 125.067 107.494C125.067 106.005 126.245 105.094 128.267 105.094C130.356 105.094 131.489 105.961 131.489 107.449C131.489 108.827 130.467 109.605 128.534 109.605ZM128.2 116.338C126 116.338 124.734 115.538 124.734 113.938C124.734 112.605 125.934 111.672 127.845 111.672H128.511C130.511 111.694 131.756 112.449 131.756 113.938C131.756 115.538 130.4 116.338 128.2 116.338ZM142.88 119.005C145.569 119.005 147.569 117.872 148.68 115.649C149.214 114.516 149.503 113.138 149.503 111.472V110.138C149.503 106.805 148.369 104.561 146.369 103.405C145.347 102.805 144.214 102.538 142.88 102.538C138.68 102.538 136.28 105.183 136.28 110.161V111.472C136.28 116.494 138.614 119.005 142.88 119.005ZM142.88 116.338C140.414 116.338 139.347 114.605 139.347 111.361V110.272C139.347 107.005 140.414 105.183 142.88 105.183C145.303 105.183 146.414 107.005 146.414 110.272V111.338C146.414 114.672 145.258 116.338 142.88 116.338ZM153.827 118.938C155.138 118.938 155.782 118.383 155.782 116.983C155.782 115.516 155.138 115.049 153.827 115.049C152.538 115.049 151.871 115.516 151.871 116.983C151.871 118.449 152.405 118.938 153.827 118.938ZM164.82 119.005C167.509 119.005 169.509 117.872 170.62 115.649C171.154 114.516 171.443 113.138 171.443 111.472V110.138C171.443 106.805 170.309 104.561 168.309 103.405C167.287 102.805 166.154 102.538 164.82 102.538C160.62 102.538 158.22 105.183 158.22 110.161V111.472C158.22 116.494 160.554 119.005 164.82 119.005ZM164.82 116.338C162.354 116.338 161.287 114.605 161.287 111.361V110.272C161.287 107.005 162.354 105.183 164.82 105.183C167.243 105.183 168.354 107.005 168.354 110.272V111.338C168.354 114.672 167.198 116.338 164.82 116.338ZM179.436 119.005C183.836 119.005 186.059 116.383 186.059 111.405V110.072C186.059 107.205 185.236 104.872 183.281 103.538C182.259 102.849 180.992 102.538 179.325 102.538C176.792 102.538 174.903 103.583 173.881 105.249C173.347 106.094 173.103 107.005 173.103 108.049C173.103 110.338 174.125 111.783 175.814 112.472C176.659 112.827 177.636 113.005 178.747 113.005C180.77 113.005 182.259 112.316 183.125 111.161V111.338C183.125 114.672 181.97 116.405 179.414 116.405C177.681 116.383 176.525 115.538 176.347 113.983H173.303C173.547 117.383 175.659 119.005 179.436 119.005ZM179.37 110.694C177.436 110.694 176.192 109.849 176.192 108.072C176.192 106.294 177.392 105.138 179.392 105.138C181.681 105.138 182.792 106.383 183.059 108.672C182.503 109.872 181.036 110.694 179.37 110.694ZM194.129 118.983C198.351 118.983 200.662 117.338 200.662 114.361C200.662 112.338 199.684 111.116 198.129 110.561C199.529 110.027 200.329 108.916 200.329 107.138C200.329 104.249 198.04 102.561 194.195 102.561C190.373 102.561 188.129 104.272 188.129 107.138C188.129 108.961 188.862 110.049 190.24 110.583C188.662 111.205 187.662 112.494 187.662 114.361C187.662 117.405 189.906 118.983 194.129 118.983ZM194.484 109.605H193.84C191.906 109.605 191.018 108.805 191.018 107.494C191.018 106.005 192.195 105.094 194.218 105.094C196.306 105.094 197.44 105.961 197.44 107.449C197.44 108.827 196.418 109.605 194.484 109.605ZM194.151 116.338C191.951 116.338 190.684 115.538 190.684 113.938C190.684 112.605 191.884 111.672 193.795 111.672H194.462C196.462 111.694 197.706 112.449 197.706 113.938C197.706 115.538 196.351 116.338 194.151 116.338Z" fill="#181B21"/>
<path d="M76.2506 138.782H78.5306V137.236H76.2506V135.049H74.7306V137.236H72.4906V138.782H74.7306V140.982H76.2506V138.782ZM79.5181 142.782H87.0515V141.169H81.5581C81.6248 140.596 82.1181 140.222 82.8115 139.862C83.1715 139.702 83.5581 139.516 83.9448 139.342C84.6915 139.009 85.4381 138.636 86.0648 138.129C86.6781 137.609 87.0648 136.942 87.0648 135.996C87.0648 134.876 86.5048 133.996 85.4381 133.489C84.9048 133.236 84.2381 133.116 83.4515 133.116C80.9848 133.116 79.6248 134.249 79.6248 136.409V136.796H81.4115V136.489C81.4115 135.289 82.1048 134.622 83.4248 134.622C84.6248 134.622 85.2515 135.102 85.2515 136.089C85.2515 136.756 84.7448 137.196 83.9715 137.569C83.5848 137.769 83.1981 137.942 82.7448 138.142C81.9715 138.476 81.1848 138.849 80.5581 139.369C79.9181 139.889 79.5181 140.556 79.5181 141.502V142.782ZM88.1751 142.782H93.7618V141.102H91.8684V133.276H90.4284C90.2684 134.276 89.8284 134.702 88.6684 134.796V136.142H90.1218V141.102H88.1751V142.782ZM94.8288 142.782H100.415V141.102H98.5221V133.276H97.0821C96.9221 134.276 96.4821 134.702 95.3221 134.796V136.142H96.7754V141.102H94.8288V142.782ZM103.054 137.156C104.32 137.156 105.107 136.449 105.107 135.236V135.142C105.107 133.862 104.294 133.142 103.067 133.142C101.894 133.142 101.014 133.822 101.014 135.142V135.236C101.014 136.462 101.747 137.156 103.054 137.156ZM101 142.782H103.04C103.374 142.329 104 141.516 104.787 140.502C105.574 139.489 106.44 138.356 107.32 137.209C108.2 136.089 109 135.036 109.64 134.236C109.947 133.822 110.214 133.502 110.387 133.276H108.427C108.094 133.742 107.454 134.556 106.667 135.569C105.88 136.609 104.987 137.742 104.107 138.862C103.214 140.009 102.4 141.036 101.76 141.836C101.44 142.249 101.2 142.556 101 142.782ZM103.067 136.049C102.547 136.049 102.227 135.742 102.227 135.182V135.142C102.227 134.529 102.6 134.249 103.067 134.249C103.574 134.249 103.907 134.569 103.907 135.142V135.182C103.907 135.716 103.587 136.049 103.067 136.049ZM108.32 142.929C109.587 142.929 110.374 142.236 110.374 141.009V140.916C110.374 139.636 109.56 138.916 108.334 138.916C107.16 138.916 106.28 139.596 106.28 140.916V141.009C106.28 142.262 107.014 142.929 108.32 142.929ZM108.334 141.822C107.814 141.822 107.494 141.516 107.494 140.956V140.916C107.494 140.302 107.867 140.022 108.334 140.022C108.84 140.022 109.174 140.342 109.174 140.916V140.956C109.174 141.489 108.854 141.822 108.334 141.822Z" fill="#2FB273"/>
<path d="M120.069 142.782V141.569H119.522C118.615 141.569 118.162 141.436 117.962 140.876C117.869 140.609 117.829 140.209 117.829 139.649V136.316H120.069V135.169H117.829V133.156H116.735C116.735 133.262 116.722 133.582 116.722 133.889C116.709 134.036 116.709 134.156 116.709 134.222C116.669 134.796 116.615 135.049 116.389 135.142C116.269 135.196 116.095 135.209 115.869 135.209H115.135V136.316H116.629V139.836C116.629 141.356 116.895 142.156 117.642 142.516C118.015 142.689 118.549 142.782 119.229 142.782H120.069ZM122.764 142.782V138.782C122.764 137.196 123.591 136.089 125.057 136.089C126.564 136.089 127.151 137.049 127.151 138.449V142.782H128.444V138.129C128.444 136.182 127.484 134.956 125.524 134.956C124.164 134.956 123.231 135.649 122.764 136.702V132.582H121.524V142.782H122.764ZM137.444 140.516H136.044C135.764 141.409 134.99 141.889 133.884 141.889C132.31 141.889 131.404 140.982 131.31 139.409H137.55V138.796C137.55 137.422 137.03 136.209 135.937 135.489C135.404 135.129 134.71 134.956 133.87 134.956C132.297 134.956 131.124 135.649 130.497 136.849C130.19 137.462 130.03 138.156 130.03 138.956V139.116C130.03 141.489 131.297 142.982 133.83 142.982C135.724 142.982 137.004 142.089 137.444 140.516ZM133.884 136.009C135.35 136.009 136.15 136.929 136.257 138.382H131.324C131.484 136.902 132.417 136.009 133.884 136.009ZM140.434 142.782V138.796C140.434 137.169 141.248 136.089 142.754 136.089C144.234 136.089 144.808 137.022 144.808 138.449V142.782H146.114V138.156C146.114 136.222 145.101 134.956 143.141 134.956C141.688 134.956 140.768 135.729 140.354 136.902L140.221 135.169H139.128V142.782H140.434ZM152.344 142.782H153.638V132.582H152.344V142.782ZM161.067 140.889L161.214 142.782H162.267V137.529C162.267 135.956 161.36 134.956 158.987 134.956C157.534 134.956 156.494 135.462 155.907 136.316C155.627 136.742 155.454 137.222 155.414 137.782H156.734C156.8 136.716 157.534 135.982 159.04 135.982C160.467 135.982 161.014 136.502 161.014 137.329C161.014 138.049 160.28 138.169 158.934 138.369C157.92 138.516 157.28 138.649 156.814 138.809C156.587 138.902 156.374 138.996 156.16 139.142C155.547 139.516 155.174 140.156 155.174 140.956C155.174 142.182 156.027 142.982 157.667 142.982C159.36 142.982 160.534 142.062 161.067 140.889ZM158.067 141.956C157.067 141.956 156.587 141.516 156.587 140.796C156.587 140.342 156.774 140.009 157.134 139.782C157.56 139.502 158.054 139.369 159.214 139.196C160.054 139.049 160.694 138.902 161.027 138.622V139.182C161.027 139.822 160.734 140.489 160.2 141.049C159.68 141.609 158.947 141.956 158.067 141.956ZM167.205 142.982C168.712 142.982 169.632 142.502 170.099 141.756C170.325 141.382 170.445 140.969 170.445 140.502C170.445 139.662 170.085 139.196 169.512 138.889C168.939 138.609 168.219 138.476 167.525 138.369C166.725 138.249 165.992 138.142 165.539 137.862C165.312 137.702 165.205 137.476 165.205 137.196C165.205 136.569 165.632 136.009 166.939 136.009C168.165 136.009 168.845 136.462 168.965 137.369H170.285C170.085 135.889 169.019 134.956 166.952 134.956C165.579 134.956 164.699 135.396 164.245 136.116C164.032 136.449 163.925 136.836 163.925 137.262C163.925 138.089 164.299 138.569 164.872 138.876C165.445 139.156 166.165 139.289 166.859 139.396C167.659 139.502 168.405 139.609 168.845 139.916C169.059 140.062 169.165 140.276 169.165 140.582C169.165 141.302 168.645 141.876 167.232 141.876C166.032 141.876 165.152 141.382 164.992 140.289H163.592C163.805 142.062 165.045 142.982 167.205 142.982ZM176.019 142.782V141.569H175.473C174.566 141.569 174.113 141.436 173.913 140.876C173.819 140.609 173.779 140.209 173.779 139.649V136.316H176.019V135.169H173.779V133.156H172.686C172.686 133.262 172.673 133.582 172.673 133.889C172.659 134.036 172.659 134.156 172.659 134.222C172.619 134.796 172.566 135.049 172.339 135.142C172.219 135.196 172.046 135.209 171.819 135.209H171.086V136.316H172.579V139.836C172.579 141.356 172.846 142.156 173.593 142.516C173.966 142.689 174.499 142.782 175.179 142.782H176.019ZM182.986 142.782V138.662C182.986 137.129 183.693 136.089 185.026 136.089C185.973 136.089 186.479 136.529 186.733 137.209C186.839 137.542 186.906 137.902 186.906 138.316V142.782H188.186V138.342C188.186 137.036 188.799 136.089 190.119 136.089C191.519 136.089 192.066 137.036 192.066 138.409V142.782H193.359V138.089C193.359 136.142 192.399 134.956 190.546 134.956C189.213 134.956 188.319 135.622 187.959 136.729C187.639 135.622 186.853 134.956 185.439 134.956C184.159 134.956 183.293 135.649 182.906 136.702L182.786 135.169H181.693V142.782H182.986ZM198.726 142.982C200.286 142.982 201.433 142.356 202.073 141.196C202.38 140.609 202.54 139.929 202.54 139.102V138.929C202.54 137.249 201.86 136.062 200.7 135.436C200.126 135.116 199.473 134.956 198.726 134.956C197.26 134.956 196.073 135.596 195.406 136.769C195.086 137.382 194.913 138.076 194.913 138.929V139.102C194.913 141.556 196.3 142.982 198.726 142.982ZM198.726 141.822C197.153 141.822 196.233 140.809 196.233 139.076V138.929C196.233 137.089 197.26 136.076 198.726 136.076C200.206 136.076 201.22 137.156 201.22 138.929V139.076C201.22 140.809 200.313 141.822 198.726 141.822ZM205.473 142.782V138.796C205.473 137.169 206.287 136.089 207.793 136.089C209.273 136.089 209.847 137.022 209.847 138.449V142.782H211.153V138.156C211.153 136.222 210.14 134.956 208.18 134.956C206.727 134.956 205.807 135.729 205.393 136.902L205.26 135.169H204.167V142.782H205.473ZM216.957 142.782V141.569H216.41C215.503 141.569 215.05 141.436 214.85 140.876C214.757 140.609 214.717 140.209 214.717 139.649V136.316H216.957V135.169H214.717V133.156H213.623C213.623 133.262 213.61 133.582 213.61 133.889C213.597 134.036 213.597 134.156 213.597 134.222C213.557 134.796 213.503 135.049 213.277 135.142C213.157 135.196 212.983 135.209 212.757 135.209H212.023V136.316H213.517V139.836C213.517 141.356 213.783 142.156 214.53 142.516C214.903 142.689 215.437 142.782 216.117 142.782H216.957ZM219.652 142.782V138.782C219.652 137.196 220.479 136.089 221.945 136.089C223.452 136.089 224.039 137.049 224.039 138.449V142.782H225.332V138.129C225.332 136.182 224.372 134.956 222.412 134.956C221.052 134.956 220.119 135.649 219.652 136.702V132.582H218.412V142.782H219.652Z" fill="#181B21" fill-opacity="0.56"/>
<rect x="23" y="162.893" width="244.444" height="44.4445" rx="4.44445" fill="#F5FBFF"/>
<path d="M37.7245 189.338L40.8534 180.416H43.2856L46.5122 189.338H44.9967L42.1734 181.394L42.7722 181.675H41.2934L41.9289 181.394L39.1911 189.338H37.7245ZM39.7534 186.82L40.2178 185.549H43.9578L44.4345 186.82H39.7534ZM50.0177 189.534C49.2437 189.534 48.6488 189.285 48.2333 188.788C47.8177 188.283 47.61 187.541 47.61 186.564V182.75H49.04V186.759C49.04 187.216 49.1663 187.578 49.4188 187.847C49.6714 188.108 50.0137 188.238 50.4455 188.238C50.8855 188.238 51.244 188.1 51.5211 187.823C51.8063 187.537 51.9488 187.15 51.9488 186.661V182.75H53.3788V189.338H52.2422V186.527H52.3888C52.3888 187.187 52.2992 187.741 52.12 188.189C51.9488 188.629 51.6922 188.963 51.35 189.191C51.0159 189.42 50.5922 189.534 50.0788 189.534H50.0177ZM58.0207 191.917C57.7111 191.917 57.3974 191.905 57.0796 191.88C56.7618 191.856 56.4644 191.823 56.1874 191.783V190.573C56.4807 190.613 56.7903 190.646 57.1163 190.67C57.4503 190.703 57.76 190.719 58.0452 190.719C58.6155 190.719 59.0718 190.646 59.414 190.499C59.7644 190.353 60.017 190.124 60.1718 189.815C60.3348 189.513 60.4163 189.118 60.4163 188.629V187.358L60.7952 186.478C60.7707 187.114 60.6363 187.647 60.3918 188.079C60.1555 188.511 59.8378 188.837 59.4385 189.057C59.0474 189.277 58.5992 189.387 58.094 189.387C57.6378 189.387 57.2222 189.301 56.8474 189.13C56.4726 188.959 56.1507 188.719 55.8818 188.409C55.6129 188.1 55.4052 187.745 55.2585 187.346C55.1118 186.939 55.0385 186.507 55.0385 186.05V185.818C55.0385 185.354 55.1118 184.922 55.2585 184.523C55.4133 184.123 55.6292 183.777 55.9063 183.484C56.1833 183.182 56.5133 182.95 56.8963 182.787C57.2874 182.624 57.7152 182.543 58.1796 182.543C58.7174 182.543 59.19 182.661 59.5974 182.897C60.0129 183.125 60.3389 183.463 60.5752 183.911C60.8115 184.36 60.9378 184.906 60.954 185.549L60.6363 185.586V182.75H61.7729V188.556C61.7729 189.354 61.6426 189.998 61.3818 190.487C61.1292 190.984 60.7259 191.347 60.1718 191.575C59.6259 191.803 58.9089 191.917 58.0207 191.917ZM58.4485 188.116C58.807 188.116 59.1329 188.039 59.4263 187.884C59.7278 187.721 59.964 187.493 60.1352 187.199C60.3144 186.898 60.404 186.539 60.404 186.124V185.623C60.404 185.215 60.3103 184.873 60.1229 184.596C59.9437 184.311 59.7074 184.095 59.414 183.948C59.1207 183.801 58.8029 183.728 58.4607 183.728C58.0696 183.728 57.7233 183.822 57.4218 184.009C57.1203 184.189 56.884 184.445 56.7129 184.779C56.55 185.105 56.4685 185.488 56.4685 185.928C56.4685 186.376 56.554 186.767 56.7252 187.101C56.8963 187.427 57.1285 187.68 57.4218 187.859C57.7233 188.03 58.0655 188.116 58.4485 188.116ZM66.3244 189.338V187.749C66.3244 187.383 66.3773 187.069 66.4833 186.808C66.5973 186.539 66.7847 186.299 67.0455 186.087C67.3062 185.875 67.6566 185.671 68.0966 185.476L69.6855 184.755C70.0847 184.576 70.3903 184.351 70.6022 184.083C70.8222 183.806 70.9322 183.451 70.9322 183.019C70.9322 182.522 70.7896 182.131 70.5044 181.846C70.2192 181.553 69.8118 181.406 69.2822 181.406C68.7607 181.406 68.3533 181.553 68.0599 181.846C67.7747 182.131 67.6322 182.53 67.6322 183.044H66.2144C66.2144 182.514 66.3244 182.033 66.5444 181.601C66.7725 181.161 67.1147 180.811 67.571 180.55C68.0273 180.29 68.5977 180.159 69.2822 180.159C69.9666 180.159 70.5329 180.29 70.981 180.55C71.4373 180.803 71.7755 181.141 71.9955 181.565C72.2236 181.98 72.3377 182.437 72.3377 182.934V183.105C72.3377 183.757 72.1503 184.307 71.7755 184.755C71.4088 185.195 70.8873 185.566 70.211 185.867L68.6099 186.588C68.284 186.735 68.0599 186.886 67.9377 187.04C67.8155 187.195 67.7544 187.399 67.7544 187.651V188.605L67.3877 188.091H72.4233V189.338H66.3244ZM75.455 189.338V181.247L75.9927 181.663H73.5483V180.416H76.8972V189.338H75.455Z" fill="#181B21"/>
<path d="M191.197 189.375C190.431 189.375 189.788 189.261 189.266 189.033C188.753 188.796 188.362 188.466 188.093 188.043C187.832 187.611 187.702 187.101 187.702 186.515H189.266C189.266 186.767 189.331 187.008 189.462 187.236C189.592 187.464 189.796 187.651 190.073 187.798C190.358 187.937 190.733 188.006 191.197 188.006C191.808 188.006 192.273 187.888 192.591 187.651C192.908 187.415 193.067 187.122 193.067 186.771C193.067 186.454 192.929 186.189 192.652 185.977C192.383 185.765 191.963 185.635 191.393 185.586L190.708 185.525C189.869 185.443 189.201 185.191 188.704 184.767C188.207 184.335 187.958 183.724 187.958 182.934C187.958 182.388 188.081 181.927 188.325 181.553C188.578 181.178 188.936 180.897 189.401 180.709C189.873 180.514 190.431 180.416 191.075 180.416C191.743 180.416 192.309 180.526 192.774 180.746C193.246 180.966 193.605 181.284 193.849 181.699C194.102 182.107 194.228 182.604 194.228 183.19H192.664C192.664 182.938 192.603 182.706 192.481 182.494C192.366 182.282 192.191 182.111 191.955 181.98C191.727 181.85 191.433 181.785 191.075 181.785C190.749 181.785 190.472 181.834 190.244 181.931C190.016 182.029 189.841 182.164 189.718 182.335C189.596 182.506 189.535 182.706 189.535 182.934C189.535 183.219 189.637 183.471 189.841 183.691C190.052 183.911 190.391 184.042 190.855 184.083L191.539 184.144C192.476 184.225 193.226 184.486 193.788 184.926C194.359 185.366 194.644 185.981 194.644 186.771C194.644 187.317 194.505 187.786 194.228 188.177C193.959 188.56 193.568 188.857 193.055 189.069C192.542 189.273 191.922 189.375 191.197 189.375ZM190.452 190.915V189.13H191.869V190.915H190.452ZM190.403 181.015V179.23H191.821V181.015H190.403ZM197.423 189.338V181.491L197.961 181.907H195.602V180.416H199.146V189.338H197.423ZM201.833 191.367L200.513 190.866L201.759 187.321L203.177 187.847L201.833 191.367ZM205.396 189.338L208.733 182.005L208.623 181.846H204.101V180.416H210.603V181.736L207.217 189.338H205.396ZM204.101 183.276V180.416H205.506V183.276H204.101ZM214.852 180.159C215.512 180.159 216.071 180.273 216.527 180.501C216.991 180.721 217.366 181.027 217.651 181.418C217.937 181.809 218.144 182.266 218.275 182.787C218.405 183.3 218.47 183.846 218.47 184.425V184.963C218.47 186.421 218.099 187.529 217.358 188.287C216.625 189.037 215.545 189.411 214.119 189.411C213.809 189.411 213.52 189.403 213.251 189.387C212.982 189.371 212.714 189.346 212.445 189.314V187.859C212.714 187.892 212.987 187.916 213.264 187.933C213.549 187.949 213.854 187.957 214.18 187.957C214.865 187.957 215.402 187.839 215.794 187.603C216.185 187.366 216.462 187.02 216.625 186.564C216.796 186.107 216.881 185.541 216.881 184.865V184.07L217.272 183.508C217.264 184.136 217.138 184.657 216.894 185.073C216.657 185.48 216.327 185.79 215.904 186.001C215.48 186.205 214.995 186.307 214.449 186.307C213.814 186.307 213.272 186.181 212.824 185.928C212.375 185.676 212.029 185.325 211.785 184.877C211.548 184.429 211.43 183.907 211.43 183.313C211.43 182.693 211.569 182.147 211.846 181.675C212.123 181.194 212.514 180.823 213.019 180.563C213.532 180.294 214.144 180.159 214.852 180.159ZM214.889 181.614C214.506 181.614 214.18 181.687 213.911 181.834C213.642 181.972 213.439 182.168 213.3 182.42C213.162 182.673 213.092 182.962 213.092 183.288C213.092 183.622 213.158 183.916 213.288 184.168C213.427 184.421 213.626 184.616 213.887 184.755C214.148 184.893 214.461 184.963 214.828 184.963C215.178 184.963 215.496 184.901 215.781 184.779C216.075 184.649 216.303 184.461 216.466 184.217C216.637 183.964 216.722 183.655 216.722 183.288C216.722 182.97 216.653 182.685 216.515 182.433C216.384 182.18 216.181 181.98 215.904 181.834C215.635 181.687 215.297 181.614 214.889 181.614ZM223.833 189.57C223.132 189.57 222.537 189.456 222.048 189.228C221.559 188.992 221.16 188.674 220.85 188.275C220.541 187.867 220.313 187.403 220.166 186.881C220.027 186.352 219.958 185.798 219.958 185.219V184.535C219.958 183.712 220.097 182.97 220.374 182.31C220.651 181.65 221.074 181.129 221.645 180.746C222.215 180.355 222.944 180.159 223.833 180.159C224.713 180.159 225.438 180.355 226.008 180.746C226.578 181.129 226.998 181.65 227.267 182.31C227.544 182.97 227.683 183.712 227.683 184.535V185.219C227.683 185.798 227.609 186.352 227.463 186.881C227.324 187.403 227.1 187.867 226.79 188.275C226.489 188.674 226.094 188.992 225.605 189.228C225.116 189.456 224.525 189.57 223.833 189.57ZM223.833 187.981C224.558 187.981 225.091 187.733 225.434 187.236C225.776 186.731 225.947 185.949 225.947 184.889C225.947 183.765 225.772 182.962 225.421 182.481C225.071 181.993 224.541 181.748 223.833 181.748C223.115 181.748 222.578 181.993 222.219 182.481C221.869 182.962 221.694 183.757 221.694 184.865C221.694 185.932 221.869 186.719 222.219 187.224C222.57 187.729 223.107 187.981 223.833 187.981ZM229.135 189.338V187.383H231.042V189.338H229.135ZM233.481 189.338L236.818 182.005L236.708 181.846H232.185V180.416H238.688V181.736L235.302 189.338H233.481ZM232.185 183.276V180.416H233.591V183.276H232.185ZM240.762 189.338L244.098 182.005L243.988 181.846H239.466V180.416H245.968V181.736L242.583 189.338H240.762ZM239.466 183.276V180.416H240.872V183.276H239.466ZM248.544 189.338V181.491L249.081 181.907H246.723V180.416H250.267V189.338H248.544Z" fill="#1F7AFF"/>
<rect x="100.777" y="181.782" width="65.5556" height="6.66667" rx="3.33333" fill="#E7EEF3"/>
<rect x="23" y="218.449" width="244.444" height="44.4445" rx="4.44445" fill="#F5FBFF"/>
<path d="M41.6111 245.114C40.8452 245.114 40.1934 244.992 39.6556 244.747C39.126 244.495 38.7226 244.152 38.4456 243.72C38.1685 243.28 38.03 242.783 38.03 242.229H39.4722C39.4722 242.482 39.5415 242.73 39.68 242.975C39.8185 243.219 40.0426 243.423 40.3522 243.586C40.6619 243.741 41.0815 243.818 41.6111 243.818C42.0919 243.818 42.4871 243.749 42.7967 243.61C43.1145 243.472 43.3467 243.289 43.4934 243.06C43.6482 242.832 43.7256 242.58 43.7256 242.303C43.7256 241.96 43.5789 241.683 43.2856 241.472C42.9922 241.252 42.5522 241.117 41.9656 241.068L41.0734 240.983C40.2504 240.918 39.5945 240.665 39.1056 240.225C38.6167 239.777 38.3722 239.19 38.3722 238.465C38.3722 237.911 38.5026 237.43 38.7634 237.023C39.0322 236.615 39.4071 236.298 39.8878 236.069C40.3685 235.833 40.9267 235.715 41.5622 235.715C42.2141 235.715 42.7804 235.833 43.2611 236.069C43.7419 236.298 44.1126 236.623 44.3734 237.047C44.6422 237.463 44.7767 237.96 44.7767 238.538H43.3345C43.3345 238.278 43.2693 238.033 43.1389 237.805C43.0167 237.569 42.8252 237.377 42.5645 237.23C42.3037 237.084 41.9697 237.01 41.5622 237.01C41.1711 237.01 40.8452 237.08 40.5845 237.218C40.3319 237.357 40.1404 237.536 40.01 237.756C39.8797 237.976 39.8145 238.212 39.8145 238.465C39.8145 238.766 39.9285 239.035 40.1567 239.272C40.3848 239.5 40.7352 239.634 41.2078 239.675L42.0878 239.748C42.7152 239.797 43.2571 239.932 43.7134 240.152C44.1778 240.363 44.5363 240.649 44.7889 241.007C45.0497 241.366 45.18 241.798 45.18 242.303C45.18 242.857 45.0293 243.346 44.7278 243.769C44.4345 244.193 44.0189 244.523 43.4811 244.759C42.9515 244.996 42.3282 245.114 41.6111 245.114ZM49.6979 245.114C49.1275 245.114 48.6305 245.016 48.2067 244.82C47.783 244.625 47.4367 244.368 47.1679 244.05C46.899 243.725 46.6953 243.362 46.5567 242.963C46.4264 242.555 46.3612 242.14 46.3612 241.716V241.484C46.3612 241.052 46.4264 240.636 46.5567 240.237C46.6953 239.83 46.899 239.467 47.1679 239.149C47.4367 238.823 47.7749 238.567 48.1823 238.379C48.5979 238.184 49.0786 238.086 49.6245 238.086C50.3334 238.086 50.9242 238.241 51.3967 238.55C51.8693 238.86 52.2238 239.263 52.4601 239.76C52.6964 240.249 52.8145 240.779 52.8145 241.349V241.924H46.9723V240.958H51.849L51.4579 241.447C51.4579 241.007 51.3886 240.628 51.2501 240.31C51.1116 239.985 50.9079 239.736 50.639 239.565C50.3701 239.386 50.0319 239.296 49.6245 239.296C49.2008 239.296 48.8464 239.394 48.5612 239.589C48.276 239.785 48.0642 240.054 47.9256 240.396C47.7871 240.738 47.7179 241.142 47.7179 241.606C47.7179 242.046 47.7871 242.441 47.9256 242.792C48.0642 243.134 48.2801 243.407 48.5734 243.61C48.8667 243.806 49.2416 243.904 49.6979 243.904C50.1542 243.904 50.529 243.806 50.8223 243.61C51.1156 243.407 51.2949 243.17 51.3601 242.902H52.6923C52.6027 243.35 52.4193 243.741 52.1423 244.075C51.8734 244.409 51.5312 244.666 51.1156 244.845C50.7001 245.024 50.2275 245.114 49.6979 245.114ZM54.3571 247.338V238.306H55.4938V241.154L55.2738 241.142C55.3145 240.449 55.4612 239.879 55.7138 239.43C55.9664 238.982 56.3004 238.648 56.716 238.428C57.1315 238.208 57.5878 238.098 58.0849 238.098C58.5575 238.098 58.9853 238.188 59.3682 238.367C59.7512 238.538 60.0812 238.779 60.3582 239.088C60.6353 239.398 60.843 239.756 60.9815 240.164C61.1282 240.571 61.2015 241.011 61.2015 241.484V241.716C61.2015 242.18 61.1282 242.62 60.9815 243.036C60.8349 243.443 60.623 243.802 60.346 244.112C60.069 244.421 59.739 244.666 59.356 244.845C58.973 245.024 58.5453 245.114 58.0727 245.114C57.5919 245.114 57.1438 245.012 56.7282 244.808C56.3127 244.605 55.9704 244.279 55.7015 243.83C55.4327 243.382 55.2819 242.8 55.2493 242.083L55.7871 242.987V247.338H54.3571ZM57.7671 243.879C58.1664 243.879 58.5167 243.786 58.8182 243.598C59.1197 243.403 59.3519 243.134 59.5149 242.792C59.686 242.441 59.7715 242.042 59.7715 241.594C59.7715 241.146 59.686 240.75 59.5149 240.408C59.3519 240.066 59.1197 239.801 58.8182 239.614C58.5249 239.418 58.1745 239.32 57.7671 239.32C57.4086 239.32 57.0745 239.402 56.7649 239.565C56.4553 239.728 56.2067 239.964 56.0193 240.274C55.8319 240.575 55.7382 240.942 55.7382 241.374V241.899C55.7382 242.315 55.8319 242.673 56.0193 242.975C56.2149 243.268 56.4675 243.492 56.7771 243.647C57.0867 243.802 57.4167 243.879 57.7671 243.879ZM65.3695 244.894V243.305C65.3695 242.938 65.4225 242.625 65.5284 242.364C65.6425 242.095 65.8299 241.855 66.0906 241.643C66.3514 241.431 66.7017 241.227 67.1417 241.032L68.7306 240.31C69.1299 240.131 69.4354 239.907 69.6473 239.638C69.8673 239.361 69.9773 239.007 69.9773 238.575C69.9773 238.078 69.8347 237.687 69.5495 237.402C69.2643 237.108 68.8569 236.962 68.3273 236.962C67.8058 236.962 67.3984 237.108 67.1051 237.402C66.8199 237.687 66.6773 238.086 66.6773 238.599H65.2595C65.2595 238.07 65.3695 237.589 65.5895 237.157C65.8177 236.717 66.1599 236.367 66.6162 236.106C67.0725 235.845 67.6429 235.715 68.3273 235.715C69.0117 235.715 69.578 235.845 70.0262 236.106C70.4825 236.359 70.8206 236.697 71.0406 237.12C71.2688 237.536 71.3829 237.992 71.3829 238.489V238.66C71.3829 239.312 71.1954 239.862 70.8206 240.31C70.454 240.75 69.9325 241.121 69.2562 241.423L67.6551 242.144C67.3291 242.29 67.1051 242.441 66.9829 242.596C66.8606 242.751 66.7995 242.955 66.7995 243.207V244.16L66.4329 243.647H71.4684V244.894H65.3695ZM74.5001 244.894V236.803L75.0379 237.218H72.5934V235.972H75.9423V244.894H74.5001Z" fill="#181B21"/>
<path d="M184.12 244.93C183.354 244.93 182.71 244.816 182.189 244.588C181.675 244.352 181.284 244.022 181.015 243.598C180.755 243.166 180.624 242.657 180.624 242.07H182.189C182.189 242.323 182.254 242.563 182.384 242.792C182.515 243.02 182.718 243.207 182.995 243.354C183.28 243.492 183.655 243.562 184.12 243.562C184.731 243.562 185.195 243.443 185.513 243.207C185.831 242.971 185.99 242.678 185.99 242.327C185.99 242.009 185.851 241.745 185.574 241.533C185.305 241.321 184.886 241.19 184.315 241.142L183.631 241.08C182.792 240.999 182.123 240.746 181.626 240.323C181.129 239.891 180.881 239.28 180.881 238.489C180.881 237.943 181.003 237.483 181.247 237.108C181.5 236.733 181.859 236.452 182.323 236.265C182.796 236.069 183.354 235.972 183.997 235.972C184.666 235.972 185.232 236.082 185.696 236.302C186.169 236.522 186.527 236.839 186.772 237.255C187.025 237.662 187.151 238.159 187.151 238.746H185.586C185.586 238.493 185.525 238.261 185.403 238.049C185.289 237.838 185.114 237.666 184.877 237.536C184.649 237.406 184.356 237.34 183.997 237.34C183.672 237.34 183.395 237.389 183.166 237.487C182.938 237.585 182.763 237.719 182.641 237.89C182.519 238.062 182.457 238.261 182.457 238.489C182.457 238.775 182.559 239.027 182.763 239.247C182.975 239.467 183.313 239.598 183.777 239.638L184.462 239.699C185.399 239.781 186.149 240.042 186.711 240.482C187.281 240.922 187.566 241.537 187.566 242.327C187.566 242.873 187.428 243.342 187.151 243.733C186.882 244.116 186.491 244.413 185.977 244.625C185.464 244.829 184.845 244.93 184.12 244.93ZM183.374 246.47V244.686H184.792V246.47H183.374ZM183.325 236.57V234.786H184.743V236.57H183.325ZM188.879 244.894V243.183C188.879 242.808 188.936 242.482 189.05 242.205C189.172 241.928 189.368 241.683 189.636 241.472C189.913 241.252 190.276 241.044 190.724 240.848L192.24 240.176C192.615 240.005 192.9 239.797 193.095 239.553C193.299 239.3 193.401 238.978 193.401 238.587C193.401 238.155 193.27 237.813 193.01 237.56C192.757 237.3 192.395 237.169 191.922 237.169C191.449 237.169 191.083 237.3 190.822 237.56C190.569 237.821 190.443 238.184 190.443 238.648H188.769C188.769 238.094 188.887 237.597 189.123 237.157C189.359 236.709 189.71 236.359 190.174 236.106C190.639 235.845 191.221 235.715 191.922 235.715C192.623 235.715 193.205 235.841 193.67 236.094C194.134 236.346 194.485 236.685 194.721 237.108C194.957 237.524 195.075 237.988 195.075 238.502V238.66C195.075 239.329 194.888 239.887 194.513 240.335C194.138 240.775 193.588 241.158 192.863 241.484L191.348 242.156C191.062 242.278 190.863 242.409 190.749 242.547C190.635 242.678 190.578 242.857 190.578 243.085V243.867L190.162 243.415H195.112V244.894H188.879ZM197.226 246.923L195.906 246.422L197.153 242.877L198.57 243.403L197.226 246.923ZM199.494 243.048V241.166L202.989 235.727L204.297 236.619L201.217 241.435L201.364 241.679H206.839V243.048H199.494ZM204.163 244.894V238.502H205.764V244.894H204.163ZM208.882 244.894L212.218 237.56L212.108 237.402H207.586V235.972H214.088V237.292L210.703 244.894H208.882ZM207.586 238.832V235.972H208.992V238.832H207.586ZM219.035 245.126C218.334 245.126 217.739 245.012 217.25 244.784C216.761 244.548 216.362 244.23 216.053 243.83C215.743 243.423 215.515 242.959 215.368 242.437C215.23 241.908 215.16 241.353 215.16 240.775V240.09C215.16 239.268 215.299 238.526 215.576 237.866C215.853 237.206 216.277 236.685 216.847 236.302C217.417 235.91 218.147 235.715 219.035 235.715C219.915 235.715 220.64 235.91 221.21 236.302C221.781 236.685 222.2 237.206 222.469 237.866C222.746 238.526 222.885 239.268 222.885 240.09V240.775C222.885 241.353 222.811 241.908 222.665 242.437C222.526 242.959 222.302 243.423 221.993 243.83C221.691 244.23 221.296 244.548 220.807 244.784C220.318 245.012 219.727 245.126 219.035 245.126ZM219.035 243.537C219.76 243.537 220.294 243.289 220.636 242.792C220.978 242.286 221.149 241.504 221.149 240.445C221.149 239.32 220.974 238.518 220.624 238.037C220.273 237.548 219.744 237.304 219.035 237.304C218.318 237.304 217.78 237.548 217.421 238.037C217.071 238.518 216.896 239.312 216.896 240.42C216.896 241.488 217.071 242.274 217.421 242.779C217.772 243.285 218.31 243.537 219.035 243.537ZM224.338 244.894V242.938H226.244V244.894H224.338ZM231.274 245.15C230.614 245.15 230.052 245.04 229.588 244.82C229.131 244.592 228.761 244.283 228.475 243.892C228.19 243.5 227.982 243.048 227.852 242.535C227.722 242.013 227.657 241.463 227.657 240.885V240.347C227.657 238.889 228.023 237.785 228.757 237.035C229.498 236.277 230.582 235.898 232.008 235.898C232.317 235.898 232.607 235.906 232.875 235.923C233.144 235.939 233.413 235.963 233.682 235.996V237.45C233.413 237.418 233.136 237.393 232.851 237.377C232.574 237.361 232.272 237.353 231.947 237.353C231.262 237.353 230.724 237.471 230.333 237.707C229.942 237.943 229.661 238.29 229.49 238.746C229.327 239.202 229.245 239.769 229.245 240.445V241.239L228.854 241.802C228.862 241.174 228.985 240.657 229.221 240.249C229.465 239.834 229.799 239.524 230.223 239.32C230.647 239.109 231.132 239.003 231.678 239.003C232.313 239.003 232.855 239.129 233.303 239.382C233.751 239.634 234.094 239.985 234.33 240.433C234.574 240.881 234.697 241.402 234.697 241.997C234.697 242.616 234.558 243.166 234.281 243.647C234.004 244.12 233.609 244.49 233.095 244.759C232.59 245.02 231.983 245.15 231.274 245.15ZM231.238 243.696C231.621 243.696 231.947 243.627 232.215 243.488C232.484 243.342 232.688 243.142 232.827 242.889C232.965 242.637 233.034 242.348 233.034 242.022C233.034 241.688 232.965 241.394 232.827 241.142C232.696 240.889 232.501 240.693 232.24 240.555C231.979 240.416 231.665 240.347 231.299 240.347C230.948 240.347 230.627 240.412 230.333 240.543C230.048 240.665 229.82 240.852 229.649 241.105C229.486 241.349 229.404 241.655 229.404 242.022C229.404 242.339 229.469 242.625 229.6 242.877C229.738 243.13 229.942 243.329 230.211 243.476C230.488 243.623 230.83 243.696 231.238 243.696ZM239.558 245.15C238.898 245.15 238.335 245.04 237.871 244.82C237.415 244.592 237.044 244.283 236.759 243.892C236.474 243.5 236.266 243.048 236.135 242.535C236.005 242.013 235.94 241.463 235.94 240.885V240.347C235.94 238.889 236.307 237.785 237.04 237.035C237.781 236.277 238.865 235.898 240.291 235.898C240.601 235.898 240.89 235.906 241.159 235.923C241.428 235.939 241.697 235.963 241.965 235.996V237.45C241.697 237.418 241.42 237.393 241.134 237.377C240.857 237.361 240.556 237.353 240.23 237.353C239.545 237.353 239.008 237.471 238.617 237.707C238.225 237.943 237.944 238.29 237.773 238.746C237.61 239.202 237.529 239.769 237.529 240.445V241.239L237.138 241.802C237.146 241.174 237.268 240.657 237.504 240.249C237.749 239.834 238.083 239.524 238.507 239.32C238.93 239.109 239.415 239.003 239.961 239.003C240.597 239.003 241.138 239.129 241.587 239.382C242.035 239.634 242.377 239.985 242.613 240.433C242.858 240.881 242.98 241.402 242.98 241.997C242.98 242.616 242.841 243.166 242.564 243.647C242.287 244.12 241.892 244.49 241.379 244.759C240.874 245.02 240.267 245.15 239.558 245.15ZM239.521 243.696C239.904 243.696 240.23 243.627 240.499 243.488C240.768 243.342 240.971 243.142 241.11 242.889C241.248 242.637 241.318 242.348 241.318 242.022C241.318 241.688 241.248 241.394 241.11 241.142C240.98 240.889 240.784 240.693 240.523 240.555C240.263 240.416 239.949 240.347 239.582 240.347C239.232 240.347 238.91 240.412 238.617 240.543C238.331 240.665 238.103 240.852 237.932 241.105C237.769 241.349 237.688 241.655 237.688 242.022C237.688 242.339 237.753 242.625 237.883 242.877C238.022 243.13 238.225 243.329 238.494 243.476C238.771 243.623 239.114 243.696 239.521 243.696ZM247.841 245.15C247.181 245.15 246.619 245.04 246.154 244.82C245.698 244.592 245.327 244.283 245.042 243.892C244.757 243.5 244.549 243.048 244.419 242.535C244.289 242.013 244.223 241.463 244.223 240.885V240.347C244.223 238.889 244.59 237.785 245.323 237.035C246.065 236.277 247.149 235.898 248.574 235.898C248.884 235.898 249.173 235.906 249.442 235.923C249.711 235.939 249.98 235.963 250.249 235.996V237.45C249.98 237.418 249.703 237.393 249.418 237.377C249.141 237.361 248.839 237.353 248.513 237.353C247.829 237.353 247.291 237.471 246.9 237.707C246.509 237.943 246.228 238.29 246.057 238.746C245.894 239.202 245.812 239.769 245.812 240.445V241.239L245.421 241.802C245.429 241.174 245.551 240.657 245.788 240.249C246.032 239.834 246.366 239.524 246.79 239.32C247.214 239.109 247.699 239.003 248.244 239.003C248.88 239.003 249.422 239.129 249.87 239.382C250.318 239.634 250.66 239.985 250.897 240.433C251.141 240.881 251.263 241.402 251.263 241.997C251.263 242.616 251.125 243.166 250.848 243.647C250.571 244.12 250.176 244.49 249.662 244.759C249.157 245.02 248.55 245.15 247.841 245.15ZM247.804 243.696C248.187 243.696 248.513 243.627 248.782 243.488C249.051 243.342 249.255 243.142 249.393 242.889C249.532 242.637 249.601 242.348 249.601 242.022C249.601 241.688 249.532 241.394 249.393 241.142C249.263 240.889 249.067 240.693 248.807 240.555C248.546 240.416 248.232 240.347 247.866 240.347C247.515 240.347 247.193 240.412 246.9 240.543C246.615 240.665 246.387 240.852 246.216 241.105C246.053 241.349 245.971 241.655 245.971 242.022C245.971 242.339 246.036 242.625 246.167 242.877C246.305 243.13 246.509 243.329 246.778 243.476C247.055 243.623 247.397 243.696 247.804 243.696Z" fill="#1F7AFF"/>
<rect x="100.777" y="237.338" width="65.5556" height="6.66667" rx="3.33333" fill="#E7EEF3"/>
<rect x="1.88846" y="1.78225" width="286.667" height="337.819" rx="16.6667" stroke="#181B21" stroke-width="2.22222"/>
</svg>
