<svg width="364" height="93" viewBox="0 0 364 93" fill="none" xmlns="http://www.w3.org/2000/svg">
<g filter="url(#filter0_d_332_2361)">
<rect x="20" y="9.79004" width="324.444" height="53.3398" rx="6.66667" fill="#C4DCFF"/>
</g>
<rect x="110" y="33.126" width="101.111" height="6.66667" rx="3.33333" fill="#DCEAFE"/>
<path d="M43.4016 41.7543C42.3749 41.7543 41.4831 41.5728 40.726 41.2099C39.9793 40.8469 39.3571 40.375 38.8593 39.7943C38.3719 39.2032 38.0038 38.5706 37.7549 37.8965C37.5164 37.2121 37.3971 36.5536 37.3971 35.921V35.5787C37.3971 34.8839 37.5216 34.1943 37.7705 33.5098C38.0193 32.815 38.3927 32.1876 38.8905 31.6276C39.3986 31.0676 40.026 30.6217 40.7727 30.2898C41.5193 29.9476 42.3956 29.7765 43.4016 29.7765C44.3971 29.7765 45.2682 29.9476 46.0149 30.2898C46.7616 30.6217 47.3838 31.0676 47.8816 31.6276C48.3897 32.1876 48.7682 32.815 49.0171 33.5098C49.266 34.1943 49.3905 34.8839 49.3905 35.5787V35.921C49.3905 36.5536 49.266 37.2121 49.0171 37.8965C48.7786 38.5706 48.4105 39.2032 47.9127 39.7943C47.4253 40.375 46.8031 40.8469 46.046 41.2099C45.2994 41.5728 44.4179 41.7543 43.4016 41.7543ZM43.4016 39.701C43.9823 39.701 44.5008 39.5973 44.9571 39.3899C45.4238 39.1824 45.8179 38.8973 46.1394 38.5343C46.4712 38.161 46.7201 37.741 46.886 37.2743C47.0623 36.7973 47.1505 36.2943 47.1505 35.7654C47.1505 35.195 47.0623 34.6713 46.886 34.1943C46.7201 33.7173 46.4712 33.3024 46.1394 32.9498C45.8179 32.5973 45.4238 32.3224 44.9571 32.1254C44.4905 31.9284 43.9719 31.8299 43.4016 31.8299C42.8208 31.8299 42.2971 31.9284 41.8305 32.1254C41.3638 32.3224 40.9645 32.5973 40.6327 32.9498C40.3112 33.3024 40.0623 33.7173 39.886 34.1943C39.7201 34.6713 39.6371 35.195 39.6371 35.7654C39.6371 36.2943 39.7201 36.7973 39.886 37.2743C40.0623 37.741 40.3112 38.161 40.6327 38.5343C40.9645 38.8973 41.3638 39.1824 41.8305 39.3899C42.2971 39.5973 42.8208 39.701 43.4016 39.701ZM55.103 41.7543C54.3667 41.7543 53.7289 41.6299 53.1897 41.381C52.6608 41.1321 52.2148 40.8002 51.8519 40.3854C51.4993 39.9706 51.2348 39.5039 51.0586 38.9854C50.8823 38.4669 50.7941 37.938 50.7941 37.3987V37.1032C50.7941 36.5328 50.8823 35.9884 51.0586 35.4699C51.2452 34.941 51.52 34.4743 51.883 34.0699C52.246 33.655 52.6919 33.3284 53.2208 33.0898C53.76 32.841 54.3823 32.7165 55.0874 32.7165C55.8237 32.7165 56.4823 32.8617 57.063 33.1521C57.6437 33.4321 58.1052 33.8261 58.4474 34.3343C58.8 34.8424 58.9971 35.4336 59.0386 36.1076H56.9386C56.8867 35.6721 56.7 35.3091 56.3786 35.0187C56.0674 34.7284 55.6371 34.5832 55.0874 34.5832C54.6104 34.5832 54.2111 34.6973 53.8897 34.9254C53.5786 35.1536 53.3452 35.4699 53.1897 35.8743C53.0341 36.2684 52.9563 36.7247 52.9563 37.2432C52.9563 37.741 53.0289 38.1921 53.1741 38.5965C53.3297 39.001 53.563 39.3173 53.8741 39.5454C54.1956 39.7736 54.6052 39.8876 55.103 39.8876C55.4763 39.8876 55.7978 39.8202 56.0674 39.6854C56.3371 39.5506 56.5497 39.3639 56.7052 39.1254C56.8711 38.8869 56.9748 38.6173 57.0163 38.3165H59.1163C59.0748 39.001 58.8726 39.6024 58.5097 40.121C58.1571 40.6291 57.6852 41.0284 57.0941 41.3187C56.5134 41.6091 55.8497 41.7543 55.103 41.7543ZM64.5196 41.5676C63.7418 41.5676 63.0988 41.4691 62.5907 41.2721C62.0929 41.0647 61.7196 40.7224 61.4707 40.2454C61.2218 39.758 61.0974 39.1047 61.0974 38.2854L61.1129 30.6321H63.1351L63.1196 38.4254C63.1196 38.8402 63.2285 39.1617 63.4462 39.3899C63.6744 39.6076 63.9959 39.7165 64.4107 39.7165H65.7329V41.5676H64.5196ZM59.7596 34.5987V33.0121H65.7329V34.5987H59.7596ZM70.6871 41.4587V39.281C70.6871 38.8039 70.7597 38.3891 70.9049 38.0365C71.0604 37.6839 71.3093 37.3728 71.6516 37.1032C72.0042 36.8232 72.4656 36.5587 73.036 36.3099L74.9649 35.4543C75.4419 35.2365 75.8049 34.9721 76.0538 34.661C76.313 34.3395 76.4427 33.9299 76.4427 33.4321C76.4427 32.8824 76.2767 32.4469 75.9449 32.1254C75.6234 31.7936 75.1619 31.6276 74.5604 31.6276C73.959 31.6276 73.4923 31.7936 73.1604 32.1254C72.839 32.4573 72.6782 32.9187 72.6782 33.5098H70.5471C70.5471 32.8047 70.6975 32.1721 70.9982 31.6121C71.299 31.0417 71.7449 30.5958 72.336 30.2743C72.9271 29.9424 73.6686 29.7765 74.5604 29.7765C75.4523 29.7765 76.1938 29.9373 76.7849 30.2587C77.376 30.5802 77.8219 31.0106 78.1227 31.5498C78.4234 32.0787 78.5738 32.6699 78.5738 33.3232V33.5254C78.5738 34.3758 78.3353 35.0861 77.8582 35.6565C77.3812 36.2165 76.6812 36.7039 75.7582 37.1187L73.8293 37.9743C73.4664 38.1299 73.2123 38.2958 73.0671 38.4721C72.9219 38.638 72.8493 38.8661 72.8493 39.1565V40.1521L72.3204 39.5765H78.6204V41.4587H70.6871ZM82.3064 41.4587V31.4721L82.9908 32.001H79.9886V30.1032H84.4997V41.4587H82.3064Z" fill="#181B21"/>
<path d="M238.79 41.5057C237.815 41.5057 236.996 41.3605 236.332 41.0701C235.679 40.7694 235.181 40.3494 234.839 39.8101C234.507 39.2605 234.341 38.6123 234.341 37.8657H236.332C236.332 38.1871 236.415 38.4931 236.581 38.7834C236.747 39.0738 237.006 39.3123 237.359 39.499C237.722 39.6753 238.199 39.7634 238.79 39.7634C239.568 39.7634 240.159 39.6131 240.563 39.3123C240.968 39.0116 241.17 38.6382 241.17 38.1923C241.17 37.7879 240.994 37.4508 240.641 37.1812C240.299 36.9116 239.765 36.7457 239.039 36.6834L238.168 36.6057C237.1 36.5019 236.249 36.1805 235.617 35.6412C234.984 35.0916 234.668 34.3138 234.668 33.3079C234.668 32.6131 234.823 32.0271 235.135 31.5501C235.456 31.0731 235.912 30.7153 236.503 30.4768C237.105 30.2279 237.815 30.1034 238.635 30.1034C239.485 30.1034 240.206 30.2434 240.797 30.5234C241.398 30.8034 241.855 31.2079 242.166 31.7368C242.487 32.2553 242.648 32.8879 242.648 33.6345H240.657C240.657 33.3131 240.579 33.0175 240.423 32.7479C240.278 32.4782 240.055 32.2605 239.755 32.0945C239.464 31.9286 239.091 31.8456 238.635 31.8456C238.22 31.8456 237.867 31.9079 237.577 32.0323C237.286 32.1568 237.063 32.3279 236.908 32.5456C236.752 32.7634 236.675 33.0175 236.675 33.3079C236.675 33.6708 236.804 33.9923 237.063 34.2723C237.333 34.5523 237.763 34.7182 238.355 34.7701L239.226 34.8479C240.418 34.9516 241.372 35.2834 242.088 35.8434C242.814 36.4034 243.177 37.1864 243.177 38.1923C243.177 38.8871 243 39.4834 242.648 39.9812C242.306 40.4686 241.808 40.8471 241.155 41.1168C240.501 41.376 239.713 41.5057 238.79 41.5057ZM237.841 43.4657V41.1945H239.646V43.4657H237.841ZM237.779 30.8656V28.5945H239.583V30.8656H237.779ZM244.847 41.459V39.2812C244.847 38.8042 244.92 38.3894 245.065 38.0368C245.22 37.6842 245.469 37.3731 245.811 37.1034C246.164 36.8234 246.625 36.559 247.196 36.3101L249.125 35.4545C249.602 35.2368 249.965 34.9723 250.214 34.6612C250.473 34.3397 250.602 33.9301 250.602 33.4323C250.602 32.8827 250.437 32.4471 250.105 32.1256C249.783 31.7938 249.322 31.6279 248.72 31.6279C248.119 31.6279 247.652 31.7938 247.32 32.1256C246.999 32.4575 246.838 32.919 246.838 33.5101H244.707C244.707 32.8049 244.857 32.1723 245.158 31.6123C245.459 31.0419 245.905 30.596 246.496 30.2745C247.087 29.9427 247.828 29.7768 248.72 29.7768C249.612 29.7768 250.354 29.9375 250.945 30.259C251.536 30.5805 251.982 31.0108 252.282 31.5501C252.583 32.079 252.734 32.6701 252.734 33.3234V33.5256C252.734 34.376 252.495 35.0864 252.018 35.6568C251.541 36.2168 250.841 36.7042 249.918 37.119L247.989 37.9745C247.626 38.1301 247.372 38.296 247.227 38.4723C247.082 38.6382 247.009 38.8664 247.009 39.1568V40.1523L246.48 39.5768H252.78V41.459H244.847ZM255.471 44.0412L253.791 43.4034L255.377 38.8923L257.182 39.5612L255.471 44.0412ZM262.775 29.7768C263.615 29.7768 264.325 29.9219 264.906 30.2123C265.497 30.4923 265.974 30.8812 266.337 31.379C266.7 31.8768 266.964 32.4575 267.13 33.1212C267.296 33.7745 267.379 34.4694 267.379 35.2057V35.8901C267.379 37.7464 266.907 39.1568 265.964 40.1212C265.03 41.0753 263.656 41.5523 261.841 41.5523C261.447 41.5523 261.079 41.5419 260.737 41.5212C260.395 41.5005 260.053 41.4694 259.71 41.4279V39.5768C260.053 39.6182 260.4 39.6494 260.753 39.6701C261.116 39.6908 261.504 39.7012 261.919 39.7012C262.79 39.7012 263.475 39.5508 263.973 39.2501C264.47 38.9494 264.823 38.5086 265.03 37.9279C265.248 37.3471 265.357 36.6264 265.357 35.7657V34.7545L265.855 34.039C265.844 34.8375 265.684 35.5012 265.373 36.0301C265.072 36.5486 264.652 36.9427 264.113 37.2123C263.573 37.4716 262.956 37.6012 262.261 37.6012C261.453 37.6012 260.763 37.4405 260.193 37.119C259.622 36.7975 259.181 36.3516 258.87 35.7812C258.57 35.2108 258.419 34.5471 258.419 33.7901C258.419 33.0019 258.596 32.3071 258.948 31.7056C259.301 31.0938 259.799 30.6219 260.441 30.2901C261.095 29.9479 261.873 29.7768 262.775 29.7768ZM262.821 31.6279C262.334 31.6279 261.919 31.7212 261.577 31.9079C261.235 32.0842 260.976 32.3331 260.799 32.6545C260.623 32.976 260.535 33.3442 260.535 33.759C260.535 34.1842 260.618 34.5575 260.784 34.879C260.96 35.2005 261.214 35.4494 261.546 35.6256C261.878 35.8019 262.277 35.8901 262.744 35.8901C263.19 35.8901 263.594 35.8123 263.957 35.6568C264.33 35.4908 264.621 35.2523 264.828 34.9412C265.046 34.6197 265.155 34.2256 265.155 33.759C265.155 33.3545 265.067 32.9916 264.89 32.6701C264.724 32.3486 264.465 32.0945 264.113 31.9079C263.77 31.7212 263.34 31.6279 262.821 31.6279ZM273.411 41.7701C272.54 41.7701 271.772 41.6301 271.108 41.3501C270.445 41.0701 269.926 40.6708 269.553 40.1523C269.18 39.6338 268.993 39.0168 268.993 38.3012C268.993 37.8242 269.076 37.4042 269.242 37.0412C269.408 36.6679 269.636 36.3516 269.926 36.0923C270.217 35.8227 270.559 35.6205 270.953 35.4857V35.299C270.652 35.1642 270.377 34.9879 270.128 34.7701C269.89 34.5523 269.698 34.2879 269.553 33.9768C269.418 33.6656 269.351 33.3079 269.351 32.9034C269.351 32.219 269.527 31.6486 269.88 31.1923C270.243 30.7256 270.73 30.3782 271.342 30.1501C271.964 29.9116 272.654 29.7923 273.411 29.7923C274.178 29.7923 274.868 29.9116 275.48 30.1501C276.102 30.3782 276.589 30.7256 276.942 31.1923C277.305 31.6486 277.486 32.219 277.486 32.9034C277.486 33.3079 277.414 33.6656 277.268 33.9768C277.134 34.2879 276.947 34.5523 276.708 34.7701C276.47 34.9879 276.195 35.1642 275.884 35.299V35.4857C276.278 35.6205 276.62 35.8227 276.911 36.0923C277.211 36.3619 277.44 36.6834 277.595 37.0568C277.761 37.4197 277.844 37.8345 277.844 38.3012C277.844 39.0168 277.657 39.6338 277.284 40.1523C276.921 40.6708 276.408 41.0701 275.744 41.3501C275.08 41.6301 274.303 41.7701 273.411 41.7701ZM273.411 39.9501C273.888 39.9501 274.297 39.8775 274.64 39.7323C274.982 39.5871 275.246 39.3745 275.433 39.0945C275.62 38.8145 275.713 38.4775 275.713 38.0834C275.713 37.6894 275.62 37.3575 275.433 37.0879C275.257 36.8079 274.992 36.5953 274.64 36.4501C274.297 36.3049 273.888 36.2323 273.411 36.2323C272.944 36.2323 272.54 36.3049 272.197 36.4501C271.855 36.5953 271.591 36.8079 271.404 37.0879C271.217 37.3575 271.124 37.6894 271.124 38.0834C271.124 38.4775 271.217 38.8145 271.404 39.0945C271.591 39.3745 271.855 39.5871 272.197 39.7323C272.54 39.8775 272.944 39.9501 273.411 39.9501ZM273.411 34.5834C274.012 34.5834 274.484 34.459 274.826 34.2101C275.179 33.9508 275.355 33.5775 275.355 33.0901C275.355 32.5819 275.179 32.2086 274.826 31.9701C274.474 31.7316 274.002 31.6123 273.411 31.6123C272.82 31.6123 272.348 31.7368 271.995 31.9856C271.653 32.2242 271.482 32.5923 271.482 33.0901C271.482 33.5775 271.658 33.9508 272.011 34.2101C272.363 34.459 272.83 34.5834 273.411 34.5834ZM284.428 41.7545C283.536 41.7545 282.779 41.6094 282.156 41.319C281.534 41.0182 281.026 40.6138 280.632 40.1057C280.238 39.5871 279.948 38.996 279.761 38.3323C279.585 37.6582 279.496 36.9531 279.496 36.2168V35.3457C279.496 34.2982 279.673 33.3545 280.025 32.5145C280.378 31.6745 280.917 31.0108 281.643 30.5234C282.369 30.0256 283.297 29.7768 284.428 29.7768C285.548 29.7768 286.471 30.0256 287.196 30.5234C287.922 31.0108 288.456 31.6745 288.799 32.5145C289.151 33.3545 289.328 34.2982 289.328 35.3457V36.2168C289.328 36.9531 289.234 37.6582 289.048 38.3323C288.871 38.996 288.586 39.5871 288.192 40.1057C287.808 40.6138 287.305 41.0182 286.683 41.319C286.061 41.6094 285.309 41.7545 284.428 41.7545ZM284.428 39.7323C285.351 39.7323 286.03 39.416 286.465 38.7834C286.901 38.1405 287.119 37.1449 287.119 35.7968C287.119 34.3656 286.896 33.3442 286.45 32.7323C286.004 32.1101 285.33 31.799 284.428 31.799C283.515 31.799 282.831 32.1101 282.374 32.7323C281.928 33.3442 281.705 34.3553 281.705 35.7657C281.705 37.1242 281.928 38.1249 282.374 38.7679C282.82 39.4108 283.505 39.7323 284.428 39.7323ZM291.176 41.459V38.9701H293.603V41.459H291.176ZM300.363 41.7545C299.471 41.7545 298.714 41.6094 298.092 41.319C297.47 41.0182 296.961 40.6138 296.567 40.1057C296.173 39.5871 295.883 38.996 295.696 38.3323C295.52 37.6582 295.432 36.9531 295.432 36.2168V35.3457C295.432 34.2982 295.608 33.3545 295.961 32.5145C296.313 31.6745 296.853 31.0108 297.578 30.5234C298.304 30.0256 299.233 29.7768 300.363 29.7768C301.483 29.7768 302.406 30.0256 303.132 30.5234C303.858 31.0108 304.392 31.6745 304.734 32.5145C305.087 33.3545 305.263 34.2982 305.263 35.3457V36.2168C305.263 36.9531 305.17 37.6582 304.983 38.3323C304.807 38.996 304.521 39.5871 304.127 40.1057C303.744 40.6138 303.241 41.0182 302.618 41.319C301.996 41.6094 301.244 41.7545 300.363 41.7545ZM300.363 39.7323C301.286 39.7323 301.965 39.416 302.401 38.7834C302.836 38.1405 303.054 37.1449 303.054 35.7968C303.054 34.3656 302.831 33.3442 302.385 32.7323C301.939 32.1101 301.265 31.799 300.363 31.799C299.45 31.799 298.766 32.1101 298.31 32.7323C297.864 33.3442 297.641 34.3553 297.641 35.7657C297.641 37.1242 297.864 38.1249 298.31 38.7679C298.755 39.4108 299.44 39.7323 300.363 39.7323ZM311.234 29.7768C312.074 29.7768 312.784 29.9219 313.365 30.2123C313.956 30.4923 314.433 30.8812 314.796 31.379C315.159 31.8768 315.424 32.4575 315.59 33.1212C315.756 33.7745 315.838 34.4694 315.838 35.2057V35.8901C315.838 37.7464 315.367 39.1568 314.423 40.1212C313.49 41.0753 312.116 41.5523 310.301 41.5523C309.907 41.5523 309.538 41.5419 309.196 41.5212C308.854 41.5005 308.512 41.4694 308.17 41.4279V39.5768C308.512 39.6182 308.859 39.6494 309.212 39.6701C309.575 39.6908 309.964 39.7012 310.378 39.7012C311.25 39.7012 311.934 39.5508 312.432 39.2501C312.93 38.9494 313.282 38.5086 313.49 37.9279C313.707 37.3471 313.816 36.6264 313.816 35.7657V34.7545L314.314 34.039C314.304 34.8375 314.143 35.5012 313.832 36.0301C313.531 36.5486 313.111 36.9427 312.572 37.2123C312.033 37.4716 311.416 37.6012 310.721 37.6012C309.912 37.6012 309.222 37.4405 308.652 37.119C308.081 36.7975 307.641 36.3516 307.33 35.7812C307.029 35.2108 306.878 34.5471 306.878 33.7901C306.878 33.0019 307.055 32.3071 307.407 31.7056C307.76 31.0938 308.258 30.6219 308.901 30.2901C309.554 29.9479 310.332 29.7768 311.234 29.7768ZM311.281 31.6279C310.793 31.6279 310.378 31.7212 310.036 31.9079C309.694 32.0842 309.435 32.3331 309.258 32.6545C309.082 32.976 308.994 33.3442 308.994 33.759C308.994 34.1842 309.077 34.5575 309.243 34.879C309.419 35.2005 309.673 35.4494 310.005 35.6256C310.337 35.8019 310.736 35.8901 311.203 35.8901C311.649 35.8901 312.053 35.8123 312.416 35.6568C312.79 35.4908 313.08 35.2523 313.287 34.9412C313.505 34.6197 313.614 34.2256 313.614 33.759C313.614 33.3545 313.526 32.9916 313.35 32.6701C313.184 32.3486 312.924 32.0945 312.572 31.9079C312.23 31.7212 311.799 31.6279 311.281 31.6279ZM321.87 41.7701C320.999 41.7701 320.231 41.6301 319.568 41.3501C318.904 41.0701 318.385 40.6708 318.012 40.1523C317.639 39.6338 317.452 39.0168 317.452 38.3012C317.452 37.8242 317.535 37.4042 317.701 37.0412C317.867 36.6679 318.095 36.3516 318.385 36.0923C318.676 35.8227 319.018 35.6205 319.412 35.4857V35.299C319.111 35.1642 318.837 34.9879 318.588 34.7701C318.349 34.5523 318.157 34.2879 318.012 33.9768C317.877 33.6656 317.81 33.3079 317.81 32.9034C317.81 32.219 317.986 31.6486 318.339 31.1923C318.702 30.7256 319.189 30.3782 319.801 30.1501C320.423 29.9116 321.113 29.7923 321.87 29.7923C322.637 29.7923 323.327 29.9116 323.939 30.1501C324.561 30.3782 325.048 30.7256 325.401 31.1923C325.764 31.6486 325.945 32.219 325.945 32.9034C325.945 33.3079 325.873 33.6656 325.728 33.9768C325.593 34.2879 325.406 34.5523 325.168 34.7701C324.929 34.9879 324.654 35.1642 324.343 35.299V35.4857C324.737 35.6205 325.08 35.8227 325.37 36.0923C325.671 36.3619 325.899 36.6834 326.054 37.0568C326.22 37.4197 326.303 37.8345 326.303 38.3012C326.303 39.0168 326.117 39.6338 325.743 40.1523C325.38 40.6708 324.867 41.0701 324.203 41.3501C323.54 41.6301 322.762 41.7701 321.87 41.7701ZM321.87 39.9501C322.347 39.9501 322.757 39.8775 323.099 39.7323C323.441 39.5871 323.705 39.3745 323.892 39.0945C324.079 38.8145 324.172 38.4775 324.172 38.0834C324.172 37.6894 324.079 37.3575 323.892 37.0879C323.716 36.8079 323.451 36.5953 323.099 36.4501C322.757 36.3049 322.347 36.2323 321.87 36.2323C321.403 36.2323 320.999 36.3049 320.657 36.4501C320.314 36.5953 320.05 36.8079 319.863 37.0879C319.677 37.3575 319.583 37.6894 319.583 38.0834C319.583 38.4775 319.677 38.8145 319.863 39.0945C320.05 39.3745 320.314 39.5871 320.657 39.7323C320.999 39.8775 321.403 39.9501 321.87 39.9501ZM321.87 34.5834C322.471 34.5834 322.943 34.459 323.285 34.2101C323.638 33.9508 323.814 33.5775 323.814 33.0901C323.814 32.5819 323.638 32.2086 323.285 31.9701C322.933 31.7316 322.461 31.6123 321.87 31.6123C321.279 31.6123 320.807 31.7368 320.454 31.9856C320.112 32.2242 319.941 32.5923 319.941 33.0901C319.941 33.5775 320.117 33.9508 320.47 34.2101C320.822 34.459 321.289 34.5834 321.87 34.5834Z" fill="#181B21"/>
<defs>
<filter id="filter0_d_332_2361" x="0.62992" y="0.105" width="363.184" height="92.08" filterUnits="userSpaceOnUse" color-interpolation-filters="sRGB">
<feFlood flood-opacity="0" result="BackgroundImageFix"/>
<feColorMatrix in="SourceAlpha" type="matrix" values="0 0 0 0 0 0 0 0 0 0 0 0 0 0 0 0 0 0 127 0" result="hardAlpha"/>
<feMorphology radius="9.68504" operator="erode" in="SourceAlpha" result="effect1_dropShadow_332_2361"/>
<feOffset dy="9.68504"/>
<feGaussianBlur stdDeviation="14.5276"/>
<feComposite in2="hardAlpha" operator="out"/>
<feColorMatrix type="matrix" values="0 0 0 0 0 0 0 0 0 0.195254 0 0 0 0 0.48 0 0 0 0.1 0"/>
<feBlend mode="normal" in2="BackgroundImageFix" result="effect1_dropShadow_332_2361"/>
<feBlend mode="normal" in="SourceGraphic" in2="effect1_dropShadow_332_2361" result="shape"/>
</filter>
</defs>
</svg>
