<svg width="176" height="40" viewBox="0 0 176 40" fill="none" xmlns="http://www.w3.org/2000/svg">
<rect x="0.0588235" y="0.0588235" width="39.8824" height="39.8824" rx="9.94118" fill="white"/>
<rect x="0.0588235" y="0.0588235" width="39.8824" height="39.8824" rx="9.94118" fill="url(#paint0_linear_1_23194)"/>
<rect x="0.0588235" y="0.0588235" width="39.8824" height="39.8824" rx="9.94118" stroke="#D0D5DD" stroke-width="0.117647"/>
<path d="M25.1855 12.2351H7.06787L10.9502 16.7645H29.0679L25.1855 12.2351Z" fill="#6C57DB"/>
<path d="M29.0649 19.9995H10.9473L14.8296 24.5289H32.9473L29.0649 19.9995Z" fill="#6C57DB"/>
<path d="M10.9502 16.7645L7.06784 12.2351V15.4704L10.9502 19.9998V16.7645Z" fill="#563ED6"/>
<path d="M14.8345 24.5289L10.9521 19.9995V23.2348L14.8345 27.7642V24.5289Z" fill="#563ED6"/>
<path d="M59.575 32.875C63.35 32.875 65.75 30.15 65.75 25.4V25.025C65.75 21.8 64.675 19.7 62.825 18.6C61.875 18.075 60.875 17.775 59.675 17.775C57.325 17.775 55.65 18.975 54.8 20.875V13.25H51.625V32.5H54.4L54.7 29.6C55.475 31.575 57.1 32.875 59.575 32.875ZM58.575 29.975C56.225 29.975 54.725 28.225 54.725 25.25V25C54.725 22.35 56.275 20.525 58.65 20.525C60.9 20.525 62.425 22.2 62.425 25.075V25.375C62.425 28.425 61.05 29.975 58.575 29.975ZM68.7498 32.5H71.9748V25.85C71.9748 23.6 72.3498 22.35 73.5498 21.775C74.1498 21.475 74.9998 21.325 76.1498 21.325H77.5748V18H76.5998C73.8748 18 72.3998 19.125 71.8248 21.5L71.3998 18.125H68.7498V32.5ZM89.5496 29.625L89.8996 32.5H92.5496V22.8C92.5496 20.725 91.7996 19.2 89.9246 18.4C88.9746 17.975 87.7746 17.775 86.1996 17.775C82.0746 17.775 79.6746 19.925 79.4496 23.2H82.8246C82.9246 21.35 83.9996 20.325 86.3746 20.325C88.6246 20.325 89.3996 21.075 89.3996 22.275C89.3996 23.45 88.3746 23.8 85.7996 24.125C83.9996 24.4 82.9246 24.6 82.0746 24.9C81.6746 25.025 81.2496 25.225 80.8496 25.5C79.6746 26.225 78.9746 27.425 78.9746 29.025C78.9746 31.375 80.5496 32.875 83.6746 32.875C86.6496 32.875 88.5746 31.5 89.5496 29.625ZM84.7996 30.35C83.2996 30.35 82.5496 29.75 82.5496 28.55C82.5496 27.925 82.8246 27.425 83.3996 27.05C84.0746 26.625 84.7746 26.425 86.5246 26.15C87.8246 25.95 88.8246 25.65 89.4246 25.225V26C89.4246 27.375 88.6496 28.825 87.2496 29.7C86.5496 30.125 85.7496 30.35 84.7996 30.35ZM99.3682 32.5V25C99.3682 22.325 100.493 20.625 102.943 20.625C105.293 20.625 106.043 22.1 106.043 24.45V32.5H109.343V23.65C109.343 20.075 107.493 17.775 104.018 17.775C101.543 17.775 99.9182 19.025 99.1432 21L98.8432 18.125H96.0682V32.5H99.3682ZM123.326 29.5L123.676 32.5H126.401V13.25H123.226V20.6C122.401 18.825 120.826 17.8 118.451 17.8C116.001 17.8 114.101 18.9 113.051 21.05C112.526 22.125 112.251 23.45 112.251 25.025V25.375C112.251 30.225 114.676 32.8 118.351 32.8C120.926 32.8 122.551 31.45 123.326 29.5ZM119.351 29.975C117.176 29.975 115.626 28.425 115.626 25.35V25.075C115.626 22.2 117.001 20.525 119.476 20.525C121.851 20.525 123.301 22.325 123.301 25.1V25.35C123.301 28.2 121.801 29.975 119.351 29.975ZM130.15 32.5H133.425V13.25H130.15V32.5ZM138.82 16.575C140.295 16.575 140.995 15.95 140.995 14.4C140.995 12.8 140.27 12.25 138.82 12.25C137.37 12.25 136.645 12.8 136.645 14.4C136.645 16.05 137.245 16.575 138.82 16.575ZM137.12 32.5H140.445V18.125H137.12V32.5ZM147.413 32.5V25C147.413 22.325 148.538 20.625 150.988 20.625C153.338 20.625 154.088 22.1 154.088 24.45V32.5H157.388V23.65C157.388 20.075 155.538 17.775 152.063 17.775C149.588 17.775 147.963 19.025 147.188 21L146.888 18.125H144.113V32.5H147.413ZM174.446 28.25H170.921C170.421 29.5 169.396 30.175 167.646 30.175C165.271 30.175 163.821 28.875 163.546 26.525H174.646V25C174.646 23.15 174.146 21.375 172.996 20C171.846 18.625 170.096 17.775 167.621 17.775C164.596 17.775 162.396 19.05 161.196 21.3C160.596 22.45 160.296 23.725 160.296 25.275V25.625C160.296 30.075 162.671 32.875 167.521 32.875C171.296 32.875 173.621 31.175 174.446 28.25ZM167.646 20.375C169.946 20.375 171.146 21.75 171.371 23.95H163.571C163.946 21.675 165.371 20.375 167.646 20.375Z" fill="#0E092A"/>
<defs>
<linearGradient id="paint0_linear_1_23194" x1="20" y1="0" x2="20" y2="40" gradientUnits="userSpaceOnUse">
<stop stop-color="white"/>
<stop offset="1" stop-color="#D0D5DD"/>
</linearGradient>
</defs>
</svg>
