<svg width="243" height="36" viewBox="0 0 243 36" fill="none" xmlns="http://www.w3.org/2000/svg">
<g clip-path="url(#clip0_1_23002)">
<path d="M6.95378 22.0621V13.0073L4.2066 14.242C4.2066 14.242 3.499 15.806 3.62387 18.0698C3.70712 19.8396 4.70609 21.9387 5.49694 22.8441L6.95378 22.0621ZM15.0288 3.41732C15.6948 3.45847 16.777 3.78774 17.5679 4.48744C18.442 5.31061 18.6085 6.54536 18.3171 7.6978C18.0673 8.68561 17.7344 9.22067 16.6938 9.92036C15.6532 10.6201 14.3628 10.5789 14.3628 10.5789V14.9417L16.5273 16.6704L14.3628 18.399V24.367C14.3628 24.367 16.5273 23.1323 17.8592 20.4158C17.8592 20.4158 17.9008 20.2512 18.0257 20.0042C18.1506 20.7451 18.0673 22.2268 17.2349 24.1201C16.6521 25.4783 15.4867 26.8365 14.0715 27.6597C11.5324 29.0591 9.6177 29.1826 7.53651 28.771C5.12233 28.2771 2.95789 26.96 1.45943 24.614C0.418834 22.9676 -0.0390283 21.0743 0.0025955 19.0164C0.0858432 14.9829 3.12438 11.5255 6.62079 10.2085C7.03703 10.0438 7.20352 9.96152 7.82788 9.87921C7.53651 10.085 7.24514 10.2908 6.82891 10.5789C5.70506 11.3198 4.74771 12.7603 4.33148 13.8716L11.1162 10.867V20.2512L5.62181 22.9676C6.24617 23.832 8.16087 25.1079 9.74257 25.3137C12.4897 25.6018 14.1131 24.4082 14.1131 24.4082V18.3167L11.9903 16.588L14.1131 14.8594V10.5789C12.9476 10.4554 11.5324 10.085 10.6999 9.87921C9.53446 9.54994 5.45532 8.43866 4.83096 8.31518C4.2066 8.23286 3.41575 8.23286 2.91626 8.68561C2.4584 9.09719 2.12541 9.83805 2.33353 10.5377C2.4584 10.9082 2.70815 11.1551 2.91626 11.3609C2.91626 11.3609 2.66652 11.3609 2.25028 11.0728C1.50105 10.6201 0.91832 9.71457 0.835072 8.64445C0.751825 7.2039 1.37618 5.88683 2.58327 5.0225C3.62387 4.36396 4.78934 3.95238 6.16292 4.11701C8.16087 4.40512 10.8664 5.5164 13.239 6.09262C14.1547 6.29841 14.9039 6.38073 15.5283 6.0103C15.8197 5.80451 16.3608 5.22829 15.9445 4.48744C15.445 3.62311 14.4461 3.62311 13.6136 3.49963C14.3212 3.37616 14.4877 3.37616 15.0288 3.41732Z" fill="#5D5973"/>
<path d="M41.4185 19.715L38.3383 21.9376V14.4879L41.4185 19.715ZM41.3352 12.5534C41.3352 12.5534 39.254 13.7882 37.8388 14.6114C36.4236 15.4345 34.5505 16.34 34.5505 16.34V24.9833L33.3018 25.9711L33.4683 26.1769L34.6754 25.1891L38.5048 28.6053L45.1646 23.3781L44.9981 23.1723L41.3352 26.0123L38.2967 23.2135V22.1845L44.3738 17.7806L41.3352 12.5534Z" fill="#5D5973"/>
<path d="M23.9365 31.8978C24.8106 32.1036 26.3506 32.2271 28.2237 31.3216C30.2633 30.2926 31.3039 28.1524 31.3039 25.9298L31.3871 22.8018V15.9283L32.7191 14.9405L32.5526 14.7347L31.2206 15.6814L28.2237 12.3887L24.3943 15.6402V4.60971L19.6076 8.27282C19.8157 8.39629 20.4817 8.51977 20.5233 9.46641V24.942L18.5254 26.4237L18.6502 26.6295L19.6492 25.8887L22.3548 28.3993L26.642 25.0655L26.4755 24.8597L25.4765 25.6417L24.3943 24.6128V16.0106L25.643 14.9405L27.5161 17.2454C27.5161 17.2454 27.5161 22.8429 27.5161 24.6951C27.5161 26.6707 27.5161 29.1402 26.4339 30.3338C25.4349 31.4862 24.9771 31.5686 23.9365 31.8978Z" fill="#5D5973"/>
<path d="M53.6975 31.1158C51.9909 30.91 51.2833 29.881 51.2833 29.099C51.2833 28.564 51.7828 27.5762 52.8234 27.4115C53.864 27.2881 54.9462 27.7408 55.8203 28.8109L59.7746 24.4893L59.5665 24.3246L58.4842 25.5182C57.402 24.2835 55.8619 23.5426 54.3635 23.2957V10.1249L64.6446 28.6463C64.6446 28.6463 64.7278 28.8521 65.1857 28.8521C65.5603 28.8521 65.477 28.564 65.477 28.564V9.91916C66.3095 9.878 67.5999 9.42525 68.2242 8.80788C70.2222 6.79111 69.3897 4.60971 69.1816 4.40391C69.0567 5.35056 68.3075 6.33836 67.0588 6.33836C65.4354 6.33836 64.4365 5.14477 64.4365 5.14477L60.4406 9.54873L60.6487 9.71336L61.7725 8.43745C63.1461 9.71336 64.1867 9.79568 65.2273 9.878V20.7027L57.5685 6.9969C56.8609 5.88562 55.8203 4.85666 54.197 4.85666C52.2823 4.85666 50.9503 6.503 50.7838 7.90239C50.6173 9.50757 50.7838 9.878 50.7838 9.878C50.7838 9.878 51.0752 8.10818 52.199 8.10818C53.198 8.10818 53.7391 9.05483 54.1137 9.71336V13.6646C53.0731 13.7469 50.3676 13.8704 50.2011 16.628C50.2011 17.657 50.8255 18.7271 51.4082 19.0975C52.1574 19.5914 52.6985 19.5503 52.6985 19.5503C52.6985 19.5503 51.8244 19.0975 52.0742 18.192C52.3239 17.3689 54.0305 17.2454 54.0721 17.5746V23.1722C53.2396 23.1722 50.6173 23.2545 49.4102 25.4771C48.7026 26.8353 48.7443 28.3582 49.4935 29.4283C50.2011 30.3749 51.4914 31.4862 53.6975 31.1158Z" fill="#5D5973"/>
<path d="M75.4668 19.715L72.3866 21.9376V14.4879L75.4668 19.715ZM75.3835 12.5534C75.3835 12.5534 73.3023 13.7882 71.8871 14.6114C70.4719 15.4345 68.5988 16.34 68.5988 16.34V24.9833L67.3501 25.9711L67.5166 26.1769L68.7237 25.1891L72.5531 28.6053L79.2129 23.3781L79.0464 23.1723L75.3835 26.0123L72.345 23.2135V22.1845L78.422 17.7806L75.3835 12.5534Z" fill="#5D5973"/>
<path d="M84.7073 28.6876L81.4606 26.0123L80.0454 27.0412L79.9205 26.8355L81.3774 25.7653V18.3156C81.4606 15.2287 78.5053 16.0108 78.6718 12.7181C78.7551 11.2775 80.1287 10.2074 80.8779 9.83698C81.6271 9.46655 82.4596 9.46655 82.4596 9.46655C82.4596 9.46655 81.1276 10.2897 81.4606 11.4833C81.9601 13.2943 85.1235 13.4589 85.1651 15.9284V24.3659L87.4961 26.2181L88.1204 25.7242V16.5458L86.8717 15.3111L90.1184 12.4711L93.0737 15.0641L91.9498 16.2577V24.4071L94.7386 26.6708L95.2381 26.3416V16.587L93.9894 15.4345L97.2361 12.5123L100.275 14.9818L101.482 13.9117L101.648 14.1175L98.901 16.5047V24.4894L91.9082 28.7287L88.3286 25.93L84.7073 28.6876Z" fill="#5D5973"/>
<path d="M227.602 19.715L224.522 21.9376V14.4879L227.602 19.715ZM227.519 12.5534C227.519 12.5534 225.437 13.7882 224.022 14.6114C222.607 15.4345 220.734 16.34 220.734 16.34V24.9833L219.485 25.9711L219.652 26.1769L220.859 25.1891L224.688 28.6053L231.348 23.3781L231.182 23.1723L227.519 26.0123L224.48 23.2135V22.1845L230.599 17.8217L227.519 12.5534Z" fill="#5D5973"/>
<path d="M196.301 16.1753L196.467 16.3811L197.716 15.311L199.589 17.3689V24.5305L198.673 25.3537L201.587 28.564L204.542 25.6829L203.335 24.407V15.8049L204.084 15.1875L206.124 17.5747V24.6951L205.333 25.4771L208.08 28.4817L210.994 25.6006L209.912 24.4893V15.8049L210.703 15.1875L212.825 17.5336V24.6128L212.118 25.3125L215.115 28.564L219.194 24.8598L218.986 24.6951L218.028 25.5595L216.53 23.9131V15.8461L217.987 14.7348L217.82 14.529L216.363 15.6403L213.616 12.5945L209.662 15.6403L206.915 12.6768L203.127 15.6403L200.338 12.718L196.301 16.1753Z" fill="#5D5973"/>
<path d="M188.101 15.9695L188.267 16.1341L189.308 15.2286L190.973 17.1631V25.3536L189.807 26.3414L189.974 26.5472L191.181 25.5182L193.845 28.564L197.716 25.1478L197.549 24.942L196.426 25.9298L194.802 24.1189V16.1341L196.176 14.9817L196.009 14.817L194.719 15.8871L191.93 12.6356L188.101 15.9695Z" fill="#5D5973"/>
<path d="M189.183 9.17851L192.097 6.54437L194.469 9.13735L191.556 11.7715L189.183 9.17851Z" fill="#5D5973"/>
<path d="M177.237 22.0609V13.0061L174.49 14.2408C174.49 14.2408 173.782 15.8048 173.907 18.0686C173.99 19.8384 174.989 21.9375 175.78 22.8429L177.237 22.0609ZM185.312 3.41612C185.978 3.45727 187.06 3.78654 187.851 4.48624C188.725 5.30941 188.892 6.54416 188.6 7.6966C188.351 8.68441 188.018 9.21947 186.977 9.91916C185.936 10.6189 184.646 10.5777 184.646 10.5777V14.9405L186.811 16.6692L184.646 18.3978V24.3658C184.646 24.3658 186.811 23.1311 188.143 20.4146C188.143 20.4146 188.184 20.25 188.309 20.003C188.434 20.7439 188.351 22.2256 187.518 24.1189C186.894 25.5594 185.728 26.9176 184.313 27.6997C181.774 29.099 179.859 29.2225 177.82 28.8109C175.406 28.317 173.241 27 171.743 24.6539C170.702 23.0076 170.244 21.1143 170.286 19.0564C170.369 15.0228 173.408 11.5655 176.904 10.2484C177.32 10.0838 177.487 10.0015 178.111 9.91916C177.82 10.125 177.528 10.3307 177.112 10.6189C175.988 11.3597 175.031 12.8003 174.615 13.9115L181.399 10.907V20.2911L175.947 23.0076C176.571 23.8719 178.486 25.1478 180.067 25.3536C182.815 25.6417 184.438 24.4481 184.438 24.4481V18.3567L182.315 16.628L184.438 14.8993V10.5777C183.273 10.4542 181.857 10.0838 181.025 9.87801C179.818 9.5899 175.739 8.43746 175.114 8.35514C174.49 8.27282 173.699 8.27282 173.2 8.72557C172.742 9.13715 172.409 9.87801 172.617 10.5777C172.742 10.9481 172.991 11.1951 173.2 11.4009C173.2 11.4009 172.95 11.4009 172.534 11.1128C171.784 10.66 171.202 9.75453 171.118 8.68441C171.035 7.24386 171.618 5.96795 172.825 5.06246C173.866 4.40392 175.031 3.99234 176.405 4.15697C178.403 4.44508 181.108 5.55636 183.481 6.13258C184.396 6.33837 185.146 6.42069 185.77 6.05026C186.061 5.84447 186.602 5.26825 186.186 4.5274C185.687 3.66307 184.688 3.66307 183.855 3.53959C184.605 3.37496 184.771 3.37496 185.312 3.41612Z" fill="#5D5973"/>
<path d="M236.176 14.2409V18.5214L237.633 19.7562C237.633 19.7562 240.755 17.2867 241.921 14.9818C241.921 14.9818 240.505 16.8751 238.591 16.2989C237.009 15.805 236.176 14.2409 236.176 14.2409ZM232.68 25.6007C232.68 25.6007 234.054 23.337 236.426 23.8309C238.674 24.2836 239.465 26.6708 239.465 26.6708V21.2379L237.883 19.8797C236.135 21.6083 233.055 24.0778 232.68 25.6007ZM234.928 29.7577C234.47 29.8812 232.555 29.4284 232.097 27.4528C231.639 25.5595 233.013 24.2425 235.011 22.2257L232.597 20.0443V15.9284C232.597 15.9284 234.345 15.0641 235.719 14.1998C237.092 13.3355 238.507 12.43 238.507 12.43C238.507 12.43 239.548 13.7059 240.713 13.6236C242.545 13.4589 242.462 12.0595 242.378 11.7303C242.67 12.2653 243.502 13.9117 240.339 17.5748L242.961 19.6739V25.0245C242.961 25.0245 239.923 26.5885 237.092 28.6464C237.092 28.6464 235.51 26.6708 234.095 27.6175C233.18 28.1937 233.596 29.2638 234.928 29.7577Z" fill="#5D5973"/>
<path d="M130.244 23.6663L133.615 26.6709V17.4514L130.244 14.3645V23.6663ZM137.153 16.1343L138.319 15.0642L138.485 15.27L137.361 16.2989V24.8188C137.361 24.8188 135.197 25.9712 133.657 26.7944C132.158 27.6587 130.535 28.6465 130.535 28.6465L126.539 25.3127L125.499 26.2181L125.332 26.0124L126.456 25.0657V15.9285C126.456 15.9285 128.329 15.1053 129.911 14.1999C131.326 13.4178 132.908 12.5124 132.908 12.5124L137.153 16.1343Z" fill="#5D5973"/>
<path d="M144.979 15.27L147.518 12.7182C147.518 12.7182 147.851 13.0063 148.184 13.171C148.35 13.2533 149.141 13.6649 149.849 13.2533C150.223 13.0475 150.265 13.0063 150.681 12.5947C150.764 14.5704 149.807 15.9697 148.6 16.546C148.1 16.7929 146.685 17.2457 145.145 15.4347V24.613L146.727 26.0124L148.059 24.9011L148.225 25.1069L144.021 28.5643L140.858 25.6832L139.692 26.7533L139.484 26.5475L141.232 24.9835V17.0399L139.9 15.27L138.735 16.2579L138.568 16.0932L142.606 12.4713L144.979 15.27Z" fill="#5D5973"/>
<path d="M155.634 19.0976L160.296 12.3888C160.296 12.3888 160.92 13.1297 162.003 13.3766C163.46 13.747 164.75 12.3476 164.75 12.3476C164.5 14.1586 163.584 16.1754 161.67 16.5047C160.005 16.7928 158.423 15.4757 158.423 15.4757L158.132 15.9284L164.625 25.6419L165.915 24.5306L166.082 24.7364L161.628 28.6053L155.634 19.0976Z" fill="#5D5973"/>
<path d="M151.805 10.1251C151.805 8.68454 151.222 7.77905 150.431 7.86137L155.551 4.32174V24.3659L156.883 25.7653L157.924 24.901L158.09 25.1068L153.969 28.6464L151.181 26.0534L150.057 27.0412L149.89 26.8355L151.847 25.148V10.1251" fill="#5D5973"/>
<path d="M119.047 15.7638C119.047 15.7638 118.464 16.3812 117.59 16.3812C116.716 16.3812 116.133 15.7638 116.133 15.7638V18.5214C116.133 18.5214 116.716 17.904 117.59 17.904C118.464 17.904 119.047 18.5214 119.047 18.5214V15.7638ZM119.047 9.87814L117.091 8.14948L116.133 8.89033V15.3111C116.133 15.3111 116.716 16.0519 117.59 16.0519C118.464 16.0519 119.047 15.3522 119.047 15.3522V9.87814ZM116.133 28.1114C116.133 28.1114 117.34 28.4406 118.173 27.7409C119.13 26.9589 119.047 25.8476 119.047 25.8476V18.8919C119.047 18.8919 118.506 18.1922 117.59 18.1922C116.716 18.1922 116.133 18.933 116.133 18.933V28.1114ZM109.14 9.79582C109.14 8.43759 108.599 7.69673 107.684 7.65558C106.393 7.61442 106.06 9.42539 106.06 9.42539C106.06 9.42539 105.811 8.026 107.018 6.75009C107.684 6.05039 108.932 5.06259 110.847 5.51533C112.845 6.00924 113.428 7.5321 113.428 8.89033V27.5351C113.428 27.5351 114.177 27.6175 114.718 27.7409C115.301 27.8644 115.883 28.029 115.883 28.029V5.55649H116.133V8.60222L120.212 5.3507L123.209 7.98484L124.624 6.79125L124.791 6.99704L123.334 8.2318V25.5595C123.251 26.6708 123.084 27.8233 122.002 28.5229C119.588 29.9223 116.674 28.3172 114.094 27.9467C112.179 27.6586 109.14 27.2882 108.391 29.058C108.141 29.6342 108.141 30.4986 109.016 31.0748C110.764 32.2272 118.547 29.1403 121.211 30.3751C123.667 31.4864 123.626 33.2562 123.251 34.4909C122.627 36.7958 119.713 37.1662 119.713 37.1662C119.713 37.1662 121.128 36.3431 120.753 34.9848C120.545 34.2851 120.087 34.1205 118.547 34.2851C115.218 34.6556 111.222 36.2607 108.516 35.1495C107.143 34.5732 106.144 32.8858 106.268 31.1983C106.352 28.7699 109.14 27.8233 109.14 27.8233V18.8919C109.057 18.5214 107.559 18.6449 107.226 19.3034C106.726 20.2912 107.85 20.744 107.85 20.744C107.85 20.744 106.934 20.8675 106.144 20.0031C105.769 19.5504 104.978 18.0275 106.019 16.6281C106.851 15.4757 107.892 15.2699 109.182 15.1464V9.79582H109.14Z" fill="#5D5973"/>
</g>
<defs>
<clipPath id="clip0_1_23002">
<rect width="243" height="36" fill="white"/>
</clipPath>
</defs>
</svg>
