<svg width="208" height="175" viewBox="0 0 208 175" fill="none" xmlns="http://www.w3.org/2000/svg">
<path fill-rule="evenodd" clip-rule="evenodd" d="M161.329 79.8448C162.945 74.1875 164.781 68.8036 165.942 63.2794C166.613 60.0865 165.449 57.1611 161.35 57.0634C157.284 56.967 153.214 57.0028 149.148 57.0732C148.957 57.0745 148.806 57.9744 148.594 58.4379C148.196 59.3105 147.975 60.4106 147.311 60.9931C143.381 64.4483 138.756 67.2907 135.461 71.2525C127.792 80.4714 125.73 89.0786 139.196 96.0677C139.597 96.2764 140.064 96.4189 140.382 96.7181C142.344 98.5592 144.181 98.233 145.891 96.403C150.993 90.9567 156.072 85.4874 161.329 79.8448ZM148.037 45.3046L147.656 43.9667C141.743 45.157 135.579 45.6456 129.97 47.6735C113.863 53.4983 98.5265 60.8339 86.8383 74.0154C80.8279 80.7926 76.0811 88.3895 79.0675 97.6719C81.9517 106.64 89.9724 110.114 98.5605 111.888C109.356 114.12 119.547 111.577 129.358 107.165C135.282 104.499 135.224 104.373 130.526 99.8147C119.524 89.1391 117.096 76.7331 124.398 64.7094C128.583 57.8232 134.593 52.446 141.818 48.6173C143.894 47.5169 145.964 46.4089 148.037 45.3046ZM50.3526 12.8418C46.517 17.4844 42.5503 22.0283 38.8827 26.7987C34.9611 31.9026 31.1387 37.1039 27.6071 42.4829C24.4151 47.3436 21.5264 52.4233 18.8132 57.5681C17.7468 59.5914 17.7635 62.1616 16.8405 64.2888C15.7807 66.7327 13.8804 68.8375 12.9754 71.3191C11.941 74.161 11.37 77.2273 10.9973 80.2461C9.14069 95.2945 8.12566 110.377 14.6149 124.661C23.922 145.139 40.1663 157.241 62.041 161.139C83.6593 164.989 104.357 159.808 124.568 152.456C143.401 145.605 159.802 135.117 174.138 120.886C182.589 112.497 189.288 102.885 194.392 92.6664C198.791 83.8565 200.514 73.2634 195.837 63.2564C191.573 54.1295 183.252 49.9712 174.609 46.2277C173.132 45.5884 171.93 44.218 170.425 43.7661C168.726 43.2557 166.737 42.9924 165.049 43.382C163.5 43.7381 162.498 45.0262 164.728 46.4006C173.844 52.0243 177.607 67.9823 172.291 78.9101C169.571 84.5021 167.585 90.3854 162.562 94.6821C161.153 95.8893 161.168 98.9712 161.005 101.227C160.976 101.634 163.258 102.208 164.658 102.778C163.379 106.761 159.515 108.343 156.148 108.639C148.652 109.299 143.043 113.719 136.848 116.926C126.263 122.408 115.429 126.37 103.256 124.542C83.3555 121.552 65.7769 103.379 68.6563 81.9156C69.8907 72.7211 74.5402 64.9008 81.6216 59.0936C88.544 53.4154 96.1847 48.6072 103.587 43.5306C105.007 42.5565 106.995 41.3242 107.458 44.6667C107.495 44.9454 108.589 45.4123 108.99 45.2596C118.599 41.5956 128.18 37.8575 137.774 33.8213C130.922 35.3781 124.071 36.9372 117.219 38.4955L117.262 38.7164C118.618 37.5514 119.784 35.8849 121.354 35.2991C137.223 29.3715 153.395 26.7367 170.101 31.5206C183.286 35.2948 193.262 42.8432 200.267 54.9544C206.377 65.5178 208.768 76.4059 206.623 88.2558C205.552 94.1661 202.925 99.46 200.067 104.879C197.096 110.508 194.301 116.195 190.433 121.221C176.794 138.93 159.613 152.077 138.915 160.581C132.278 163.31 125.833 166.668 118.992 168.694C112.099 170.735 104.841 171.584 97.7116 172.758C93.3264 173.476 88.8878 173.912 84.4605 174.331C58.462 176.797 37.9551 166.049 20.8888 147.504C3.59148 128.704 -2.16545 106.498 1.7771 81.3886C5.19903 59.5939 13.9872 40.2242 27.8666 23.2908C34.3176 15.4177 41.9324 8.49708 49.7454 0.392345C50.0814 4.01498 50.2749 6.11279 50.478 8.2006C50.4408 9.74085 50.3964 11.2901 50.3526 12.8418Z" fill="#FFE1C4"/>
</svg>
