<svg width="193" height="182" viewBox="0 0 193 182" fill="none" xmlns="http://www.w3.org/2000/svg">
<path fill-rule="evenodd" clip-rule="evenodd" d="M46.8503 134.085C48.2796 139.793 49.3814 145.373 51.138 150.738C52.1534 153.838 54.6246 155.79 58.2227 153.825C61.7924 151.876 65.2989 149.81 68.7855 147.715C68.9501 147.619 68.6311 146.764 68.5828 146.257C68.4914 145.302 68.1324 144.239 68.4166 143.402C70.0918 138.445 72.676 133.671 73.5486 128.593C75.581 116.774 73.0633 108.289 57.9069 108.969C57.4548 108.989 56.9796 109.099 56.5542 108.999C53.9349 108.385 52.5074 109.586 51.9407 112.027C50.2456 119.294 48.5821 126.57 46.8503 134.085ZM75.6322 157.352L76.6311 158.32C81.1564 154.333 86.25 150.828 90.094 146.267C101.131 133.169 110.744 119.148 114.276 101.888C116.093 93.0139 116.405 84.0614 109.177 77.5157C102.196 71.1915 93.5125 72.1929 85.188 74.9507C74.7232 78.4156 67.1682 85.7131 60.878 94.4394C57.0805 99.7109 57.1936 99.7907 63.5419 101.389C78.4076 105.134 86.7136 114.663 86.4012 128.728C86.2201 136.783 83.704 144.445 79.3615 151.373C78.1135 153.365 76.8752 155.359 75.6322 157.352ZM176.46 136.623C177.461 130.685 178.624 124.766 179.415 118.801C180.259 112.42 180.969 106.005 181.338 99.5806C181.672 93.7752 181.634 87.9316 181.411 82.1196C181.323 79.8341 180.023 77.6167 179.759 75.3129C179.455 72.6665 180.048 69.8936 179.591 67.2919C179.066 64.3136 178.028 61.3725 176.841 58.5719C170.925 44.6113 164.262 31.0416 151.501 21.9164C133.201 8.83538 113.083 6.47723 92.1895 14.0386C71.5421 21.513 56.208 36.3497 42.381 52.8213C29.4964 68.1717 20.5372 85.4548 15.2374 104.947C12.1123 116.438 11.1171 128.112 11.8066 139.513C12.4019 149.342 16.2063 159.377 25.2602 165.705C33.5165 171.477 42.8015 170.918 52.1579 169.839C53.7567 169.654 55.4833 170.239 57.0123 169.878C58.7389 169.471 60.5936 168.704 61.8599 167.523C63.0234 166.44 63.2477 164.823 60.6286 164.748C49.9227 164.436 38.6849 152.497 37.8241 140.376C37.3837 134.173 36.1622 128.085 38.3643 121.852C38.9808 120.102 37.4269 117.441 36.4397 115.406C36.2619 115.039 33.9984 115.682 32.5011 115.889C31.617 111.8 34.1729 108.498 36.94 106.559C43.1023 102.239 45.7496 95.6066 49.5106 89.7314C55.937 79.691 63.339 70.8432 74.7945 66.3403C93.5239 58.9788 117.834 65.9278 126.072 85.9555C129.6 94.5354 129.484 103.633 126.255 112.203C123.099 120.581 118.886 128.566 115.014 136.663C114.271 138.217 113.166 140.278 111.093 137.615C110.922 137.392 109.741 137.535 109.47 137.867C102.98 145.845 96.5518 153.873 90.2617 162.165C95.4168 157.391 100.57 152.616 105.726 147.84L105.578 147.67C104.986 149.357 104.81 151.383 103.743 152.675C92.9639 165.743 80.2753 176.111 63.4156 180.321C50.1105 183.645 37.6961 182.096 25.5744 175.11C15.0014 169.017 7.48659 160.783 3.41889 149.448C1.39125 143.794 1.01984 137.896 0.785267 131.774C0.543599 125.413 0.120657 119.091 0.957648 112.805C3.91468 90.648 12.2207 70.6719 25.8934 52.9581C30.2774 47.2768 34.1797 41.146 39.0904 35.9712C44.0395 30.7573 49.901 26.3928 55.4883 21.8115C58.9267 18.9966 62.553 16.4003 66.1775 13.8236C87.4596 -1.31165 110.593 -2.25706 134.646 5.27059C159.026 12.9031 175.114 29.2556 184.255 52.9724C192.188 73.558 194.262 94.7268 190.709 116.331C189.059 126.375 185.925 136.176 183.211 147.101C181.109 144.132 179.892 142.412 178.672 140.705C177.934 139.353 177.198 137.989 176.46 136.623Z" fill="#C4DCFF"/>
</svg>
