<svg width="79" height="80" viewBox="0 0 79 80" fill="none" xmlns="http://www.w3.org/2000/svg">
<g clip-path="url(#clip0_1_23252)">
<path d="M48.9754 16.93L37.5532 14.9458L32.0256 13.9894C30.0789 13.6532 28.0692 13.4315 26.156 12.934C25.4625 12.7579 25.6874 12.1144 26.0322 11.7011C26.4819 11.1611 27.2993 10.703 28.0243 10.7766C30.0058 10.9727 31.9862 11.4303 33.9492 11.7711L39.4767 12.7276L50.904 14.7062C51.6427 14.8326 51.3494 15.5854 51.0247 15.9766C50.59 16.5 49.6978 17.0517 48.9698 16.9249L48.9754 16.93Z" fill="#002152"/>
<path d="M48.8796 32.9429C37.6216 39.2531 26.418 45.6733 15.0831 51.8531C14.6898 52.0709 13.7205 52.5828 13.3523 52.0261C13.0067 51.4899 13.8616 50.7529 14.2286 50.5415C25.4097 44.1008 36.7265 37.8844 47.9901 31.5793C48.4042 31.35 49.4148 30.8152 49.7955 31.4034C50.158 31.955 49.2685 32.7412 48.8802 32.9535L48.8796 32.9429Z" fill="#002152"/>
<path d="M61.1175 40.6944L59.2924 51.9244L58.396 57.448C58.0881 59.3483 57.8685 61.2985 57.4253 63.1666C57.2694 63.8021 56.497 64.3011 55.932 64.5042C55.6391 64.6114 54.5895 64.8384 54.6439 64.2015C54.8058 62.2695 55.214 60.3493 55.5269 58.4436L56.4233 52.9199L58.2751 41.5021C58.4411 40.4822 61.3627 39.1913 61.1226 40.6888L61.1175 40.6944Z" fill="#002152"/>
</g>
<defs>
<clipPath id="clip0_1_23252">
<rect width="53" height="58" fill="white" transform="matrix(-0.672592 0.740014 0.740014 0.672592 35.8633 0.884521)"/>
</clipPath>
</defs>
</svg>
