<svg width="162" height="36" viewBox="0 0 162 36" fill="none" xmlns="http://www.w3.org/2000/svg">
<g clip-path="url(#clip0_1_23004)">
<path fill-rule="evenodd" clip-rule="evenodd" d="M76.9407 12.1247C76.9407 15.3288 76.5745 25.3989 76.5745 25.3989C76.5745 27.3213 77.2153 28.2368 79.0462 28.2368V29.0607H71.9056V28.2368C73.7366 28.2368 74.7436 27.4129 74.7436 25.3989L75.3844 9.01217C74.8351 7.73053 74.2858 7.2728 72.9126 7.18126V6.35735H78.4054L84.2643 21.6455L90.2148 6.35735H95.1583V7.08971C93.7851 7.08971 92.9612 7.73053 92.9612 9.28681L93.602 25.1242C93.602 27.5044 94.0597 28.1452 95.9822 28.1452V28.9692H87.6515V28.1452C89.2993 28.1452 90.0317 27.596 89.9402 25.1242C89.9402 25.1242 89.574 14.0472 89.4824 12.0332L85.4544 23.0187C84.9052 24.3919 84.3559 26.0397 83.9897 27.7791L82.7081 27.8706C82.3419 26.6805 81.518 24.4834 81.518 24.4834C81.518 24.4834 78.1308 15.2373 76.9407 12.1247Z" fill="#5D5973"/>
<path fill-rule="evenodd" clip-rule="evenodd" d="M70.1663 29.1523C69.7086 29.0607 69.3424 29.0607 68.8847 29.0607C68.0607 29.0607 66.5045 29.5185 64.6736 29.5185C57.6245 29.5185 52.498 25.3074 52.498 17.526C52.498 10.9347 57.3499 5.89966 64.7651 5.89966C66.5045 5.89966 68.4269 6.26584 70.0748 6.90666C70.4409 6.54048 70.5325 6.35739 70.8071 6.08275H71.4479C71.3564 7.27285 70.8987 11.1178 70.8987 11.1178H70.2578C69.8001 8.82912 68.61 7.36439 64.8567 7.36439C60.3709 7.36439 56.2514 10.9347 56.2514 17.526C56.2514 24.9412 60.4624 28.2368 65.1313 28.2368C68.1523 28.2368 69.9832 26.4975 71.1733 24.3919L71.9057 24.7581L70.1663 29.1523Z" fill="#5D5973"/>
<path fill-rule="evenodd" clip-rule="evenodd" d="M49.7516 10.5685H49.0192C48.9277 8.55447 48.2869 7.91365 46.639 7.91365H43.5265V24.8496C43.5265 27.6875 44.0758 28.2368 45.9067 28.2368V29.0607H37.8506V28.2368C39.6816 28.2368 40.2308 27.6875 40.2308 24.7581V7.91365H37.1183C35.1043 7.91365 34.7381 8.46293 34.1888 10.5685H33.4565L34.0057 5.71655L34.555 5.8081C34.7381 6.35737 35.1958 6.35737 36.4775 6.35737H46.9137C48.8361 6.35737 49.2939 6.35737 49.7516 5.71655H50.3924L49.7516 10.5685Z" fill="#5D5973"/>
<path fill-rule="evenodd" clip-rule="evenodd" d="M26.9567 29.61C25.492 29.61 24.3019 29.4269 23.3864 29.0607C22.5625 28.8777 21.9217 28.5115 21.5555 28.3284C21.0978 28.7861 20.8232 29.3354 20.8232 29.3354L20.1823 29.1523L20.6401 23.9342L21.3724 24.0257C21.8302 26.4059 23.3864 28.1453 26.7736 28.1453C29.3369 28.1453 31.0763 25.9482 31.0763 23.6595C31.0763 21.7371 30.3439 20.7301 27.6891 18.8076C26.8652 18.2583 26.0413 17.8006 25.4004 17.3429C23.0203 15.8782 21.5555 14.1388 21.5555 11.3009C21.5555 8.09676 24.2103 5.89966 27.7806 5.89966C29.7946 5.89966 31.1678 6.54048 31.534 6.72357L32.2664 5.89966L32.8157 5.99121L32.2664 10.66L31.6256 10.4769C31.6256 8.27985 30.3439 7.36439 28.1468 7.36439C26.1328 7.36439 24.5765 8.46294 24.5765 10.4769C24.5765 12.3079 25.9497 13.498 27.5975 14.5965C28.4215 15.1458 29.0623 15.6035 29.7946 15.9697C33.548 18.6245 34.4635 20.3639 34.4635 23.0187C34.4635 26.7721 31.534 29.61 26.9567 29.61Z" fill="#5D5973"/>
<path fill-rule="evenodd" clip-rule="evenodd" d="M14.598 10.5685H13.7741C13.7741 8.64601 12.9502 7.91364 11.2109 7.91364H6.35893V16.4274H9.47148C11.1193 16.4274 11.3939 15.6035 11.6686 14.1388H12.4009V20.1808H11.6686C11.4855 18.533 11.1193 17.8921 9.37994 17.8921H6.35893V25.1243C6.35893 27.7791 6.99975 28.1453 8.73912 28.1453V28.9692H0.5V28.1453C2.51401 28.1453 2.88019 27.596 2.88019 25.1243V9.28683C2.88019 7.8221 2.23937 7.08973 0.5 7.08973V6.35737H11.7601C13.6826 6.35737 14.1403 6.26582 14.415 5.625H15.1473L14.598 10.5685Z" fill="#5D5973"/>
<path fill-rule="evenodd" clip-rule="evenodd" d="M130.953 11.8501V24.8496C130.953 27.6875 131.593 28.2368 133.333 28.2368V29.0607H120.608V28.2368C121.615 28.2368 122.439 27.8706 122.439 27.2298C122.439 26.7721 122.347 26.0397 122.073 25.3073L121.066 22.1948H114.017C113.925 22.6525 112.643 26.2228 112.643 27.1382C112.643 27.9622 113.65 28.2368 114.291 28.2368V29.0607H108.341V28.2368C109.439 28.2368 110.263 28.1452 110.996 25.8566L116.488 8.27981C116.122 7.54744 115.756 7.2728 115.024 7.18126V6.35735H119.876L125.735 24.7581C126.284 26.6805 126.833 27.6875 127.657 28.1452C128.939 27.6875 129.305 27.3213 129.305 24.7581V9.28681C128.298 8.00517 128.206 7.08971 126.375 7.08971V6.35735H131.868L140.931 21.737V10.0192C140.931 7.63899 140.382 7.08971 138.551 7.08971V6.35735H150.635V7.08971C149.903 7.08971 149.262 7.45589 149.262 8.18826C149.262 8.73754 149.445 9.28681 149.72 9.92763L153.198 17.3428L156.585 10.1107C157.135 9.10372 157.226 8.64599 157.226 8.09672C157.226 7.45589 156.769 7.08971 155.853 7.08971V6.35735H161.529V7.08971C160.156 7.08971 159.24 8.37135 158.599 9.92763L154.205 18.9907V24.9411C154.205 27.5044 154.846 28.1452 156.585 28.1452V28.9692H148.346V28.1452C150.086 28.1452 150.727 27.5044 150.727 24.9411V19.9061L145.966 9.83608C145.142 7.91362 144.776 7.45589 144.227 7.18126C143.128 7.63899 142.854 8.37135 142.854 10.1107V26.6805C142.854 26.6805 142.945 27.9622 143.037 29.5184L141.663 29.61L130.953 11.8501ZM117.495 10.8431L114.474 20.6385H120.7L117.495 10.8431Z" fill="#5D5973"/>
<path fill-rule="evenodd" clip-rule="evenodd" d="M104.13 20.6385C104.13 20.6385 103.123 20.6385 102.482 20.6385V25.3073C102.482 27.6875 103.123 28.2368 104.954 28.2368V29.0607H96.623V28.2368C98.3624 28.2368 99.0032 27.596 99.0032 25.2158V9.92763C99.0032 7.54744 98.3624 7.08971 96.623 7.08971V6.35735H102.848C108.89 6.35735 112.46 8.18826 112.46 13.1317C112.552 18.3498 108.249 20.6385 104.13 20.6385ZM103.031 7.91362H102.482V18.9907H103.489C107.059 18.9907 108.89 17.3428 108.89 13.3148C108.89 9.19526 107.242 7.91362 103.031 7.91362Z" fill="#5D5973"/>
<path fill-rule="evenodd" clip-rule="evenodd" d="M66.5045 24.6665C62.3849 24.6665 59.6386 21.7371 59.6386 17.5259C59.6386 13.4979 62.568 10.3854 66.5045 10.3854C70.3494 10.3854 73.2789 13.4064 73.2789 17.5259C73.2789 21.554 70.2579 24.6665 66.5045 24.6665ZM66.5045 11.7586C63.6666 11.7586 62.7511 14.5049 62.7511 17.6175C62.7511 20.547 63.575 23.4764 66.5045 23.4764C69.3424 23.4764 70.1663 20.547 70.1663 17.5259C70.1663 14.5965 69.0678 11.7586 66.5045 11.7586Z" fill="#5D5973"/>
<path fill-rule="evenodd" clip-rule="evenodd" d="M19.0838 23.3849V22.6525C20.1823 22.6525 20.3654 22.2864 20.3654 22.0117C20.3654 21.554 20.2739 21.2794 20.1823 20.9132C20.1823 20.9132 19.9993 20.0893 19.7246 19.4484H15.5135L15.0558 20.8216C14.9642 21.1878 14.8727 21.4624 14.8727 21.9202C14.8727 22.3779 15.3304 22.6525 15.9712 22.6525V23.3849H11.7601V22.6525C12.8587 22.6525 13.2249 22.2864 13.6826 21.1878L16.8867 11.484C16.7952 11.0262 16.429 10.7516 15.7882 10.7516V9.92767H19.2669C22.1048 18.1668 22.8372 20.2723 22.8372 20.2723C23.3864 22.1033 23.9357 22.6525 24.7596 22.6525V23.3849H19.0838ZM17.5275 12.9487L15.8797 18.2583H19.2669L17.5275 12.9487Z" fill="#5D5973"/>
</g>
<defs>
<clipPath id="clip0_1_23004">
<rect width="161.25" height="36" fill="white" transform="translate(0.5)"/>
</clipPath>
</defs>
</svg>
