<svg width="215" height="36" viewBox="0 0 215 36" fill="none" xmlns="http://www.w3.org/2000/svg">
<g clip-path="url(#clip0_1_23003)">
<path d="M136.093 27.7081C130.862 27.7081 128.058 23.828 128.058 18.6219C128.058 12.9553 131.378 9.53573 136.107 9.53573C140.431 9.53573 142.147 11.406 143.361 14.7278L138.939 16.4446C138.311 14.8116 137.711 13.7787 136.093 13.7787C134.056 13.7787 133.178 15.8165 133.178 18.608C133.178 21.3017 134.029 23.4372 136.149 23.4372C137.683 23.4372 138.339 22.5997 139.288 20.9388L143.417 23.1301C142.245 25.461 140.278 27.7081 136.093 27.7081Z" fill="#5D5973"/>
<path d="M154.562 19.1943C153.991 18.5662 153.335 18.0916 152.456 18.0916C151.354 18.0916 150.671 18.622 150.671 20.2271V27.429H146.137V14.2115H150.671V15.1746C151.452 14.4209 152.331 13.9463 153.488 13.9463C154.451 13.9463 155.093 14.1696 155.623 14.5046L154.562 19.1943Z" fill="#5D5973"/>
<path d="M165.332 27.429V26.5497C164.523 27.1777 163.574 27.7081 162.039 27.7081C159.138 27.7081 157.757 25.7681 157.757 22.2927V14.2114H162.318V21.7205C162.318 23.4372 162.89 23.8838 163.825 23.8838C164.76 23.8838 165.332 23.4372 165.332 21.7623V14.2114H169.893V27.429H165.332Z" fill="#5D5973"/>
<path d="M180.732 27.4288V19.9198C180.732 18.203 180.16 17.7564 179.226 17.7564C178.263 17.7564 177.691 18.203 177.691 19.8779V27.4288H173.157V14.2112H177.691V15.0905C178.528 14.4625 179.449 13.9321 181.011 13.9321C183.913 13.9321 185.294 15.8721 185.294 19.3475V27.4288H180.732Z" fill="#5D5973"/>
<path d="M194.124 27.7079C190.246 27.7079 187.93 25.2375 187.93 20.7851C187.93 16.7235 189.995 13.9321 194.221 13.9321C196.718 13.9321 198.141 15.0905 199.299 16.9469L196.174 19.3196C195.547 18.1611 195.114 17.6028 194.138 17.6028C192.98 17.6028 192.394 18.7613 192.394 20.8549C192.394 22.9485 193.022 24.0232 194.263 24.0232C195.114 24.0232 195.728 23.5486 196.551 22.3064L199.425 24.5536C197.89 26.8146 196.467 27.7079 194.124 27.7079Z" fill="#5D5973"/>
<path d="M209.566 27.4289V19.9199C209.566 18.2032 208.994 17.7565 208.059 17.7565C207.097 17.7565 206.525 18.2032 206.525 19.878V27.4289H201.991V10.8756L206.525 9.06116V15.0907C207.362 14.4626 208.283 13.9322 209.845 13.9322C212.747 13.9322 214.128 15.8723 214.128 19.3477V27.4289H209.566Z" fill="#5D5973"/>
<path d="M80.4896 14.0577V27.4288H75.6073V14.0577H70.6691V9.80074H85.4139V14.0577H80.4896Z" fill="#5D5973"/>
<path d="M96.8247 22.1114H89.0687C89.2221 23.5769 90.0731 24.2189 91.3146 24.2189C92.4724 24.2189 93.4349 23.9677 94.7323 23.2838L96.462 26.1869C94.8299 27.1499 93.142 27.6943 91.0774 27.6943C87.1018 27.6943 84.9117 24.8749 84.9117 20.8133C84.9117 16.2493 87.4784 13.9184 90.9519 13.9184C94.5788 13.9184 96.8387 16.3051 96.8387 21.2181C96.8387 21.6089 96.8387 21.8881 96.8247 22.1114ZM90.8263 17.2822C89.7941 17.2822 89.2221 17.994 89.0687 19.292H92.8491C92.6119 17.9521 92.1655 17.2822 90.8263 17.2822Z" fill="#5D5973"/>
<path d="M105.25 27.7079C101.372 27.7079 99.0567 25.2375 99.0567 20.7851C99.0567 16.7235 101.121 13.9321 105.348 13.9321C107.845 13.9321 109.268 15.0905 110.426 16.9468L107.301 19.3196C106.673 18.1611 106.241 17.6028 105.264 17.6028C104.106 17.6028 103.521 18.7613 103.521 20.8549C103.521 22.9485 104.148 24.0232 105.39 24.0232C106.241 24.0232 106.855 23.5486 107.678 22.3064L110.551 24.5536C109.017 26.8146 107.594 27.7079 105.25 27.7079Z" fill="#5D5973"/>
<path d="M120.693 27.4289V19.9199C120.693 18.2032 120.121 17.7565 119.186 17.7565C118.223 17.7565 117.652 18.2032 117.652 19.878V27.4289H113.118V10.8756L117.652 9.06115V15.0907C118.489 14.4626 119.409 13.9322 120.972 13.9322C123.873 13.9322 125.254 15.8723 125.254 19.3477V27.4289H120.693Z" fill="#5D5973"/>
<path d="M0 2.25V12.3272H10.0717V32.4675H20.1294V12.3272H30.201V2.25H0Z" fill="#5D5973"/>
<path d="M40.2588 22.3904V12.3272L30.201 12.3272L30.201 32.4676H60.3881V22.3904H40.2588Z" fill="#5D5973"/>
<path d="M60.3881 2.25H40.2587L40.2588 12.3272L60.3881 12.3272V2.25Z" fill="#5D5973"/>
</g>
<defs>
<clipPath id="clip0_1_23003">
<rect width="214.5" height="36" fill="white"/>
</clipPath>
</defs>
</svg>
