<svg width="111" height="36" viewBox="0 0 111 36" fill="none" xmlns="http://www.w3.org/2000/svg">
<g clip-path="url(#clip0_1_23005)">
<path d="M25.7748 19.073L27.6802 18.0769V3.17268H26.2231L22.6737 7.82102H22.2627L22.5243 2.58241H37.9174L38.1416 7.82102H37.7306L34.2186 3.17268H32.7241V18.04L34.6669 19.0361V19.5526H25.7748V19.073ZM39.6361 18.4089V1.88147L38.1416 1.29121V0.996074L43.5217 0H44.1195V7.85792L44.2316 7.74724C45.5393 6.67738 47.1459 6.05023 48.8645 6.05023C51.2183 6.05023 52.2645 7.37832 52.2645 9.81317V18.4089L53.5348 19.073V19.5526H46.4733V19.073L47.7436 18.4089V9.77628C47.7436 8.41129 47.1458 7.89481 46.025 7.89481C45.3525 7.89481 44.68 8.07927 44.1569 8.48507V18.4089L45.3898 19.073V19.5526H38.3284V19.1099L39.6361 18.4089ZM57.3831 13.3179C57.5325 16.0479 58.7655 18.1507 61.7171 18.1507C63.1368 18.1507 64.1456 17.4866 65.0796 17.007V17.5604C63.8093 19.1099 61.9039 19.9584 59.8863 19.9584C55.3281 19.9584 53.0117 17.4497 53.0117 13.1334C53.0117 8.89088 55.5523 6.27158 59.6621 6.27158C63.5478 6.27158 65.528 8.18994 65.528 13.2072V13.3179H57.3831ZM57.3083 12.6907L61.3061 12.4325C61.3061 9.03845 60.7083 6.78806 59.5501 6.78806C58.2797 6.82495 57.3083 9.44426 57.3083 12.6907ZM0.742188 26.1562C0.742188 18.9623 5.56189 16.4168 10.942 16.4168C13.2211 16.4168 15.3881 16.7857 16.5837 17.2653L16.6958 22.2825H16.1727L13.0343 17.4128C12.3991 17.1546 11.7266 17.0439 11.0541 17.0808C8.2146 17.0808 6.72012 20.3273 6.79484 25.6766C6.8322 32.0588 7.99043 34.9733 10.6058 34.9733C11.1288 34.9733 11.6893 34.8995 12.175 34.715V27.8901L10.3816 26.9309V26.3406H18.7507V26.9678L17.032 27.927V34.6781C15.0145 35.3791 12.8849 35.748 10.7179 35.748C4.62784 35.7111 0.742188 32.9073 0.742188 26.1562ZM17.9661 22.799V22.3932L23.5704 21.3971L24.2056 21.434V32.354C24.2056 33.6821 24.8407 34.0879 25.9242 34.0879C26.6341 34.0879 27.3066 33.7927 27.7549 33.2394V23.4631L26.1857 22.799V22.3563L31.7901 21.3971L32.3505 21.434V33.9772L33.8823 34.6043V35.0102L28.3901 35.6742L27.8297 35.6373V33.9772H27.6802C26.5594 35.0839 25.0649 35.6742 23.4583 35.7111C20.7682 35.7111 19.5353 34.1248 19.5353 31.7637V23.4631L17.9661 22.799ZM53.1985 21.3971L53.6469 21.434V25.4921H53.7589C54.3567 22.5408 55.6644 21.434 57.3083 21.434C57.5325 21.434 57.794 21.4709 58.0182 21.5447V25.6397C57.6446 25.5659 57.2336 25.529 56.86 25.529C55.8139 25.4921 54.7677 25.7135 53.7963 26.1193V34.1248L55.0666 34.8257V35.416H47.781V34.8626L49.0887 34.1616V23.2417L47.5568 22.799V22.4301L53.1985 21.3971ZM67.284 21.7292V17.4497L65.7522 16.9333V16.6012L71.4312 15.5683L71.9543 15.642V33.9772L73.5235 34.5306V35.0102L67.9192 35.748L67.4708 35.7111V34.1985H67.3587C66.3873 35.1946 65.0423 35.7849 63.6225 35.748C60.5588 35.748 58.3545 33.4607 58.3545 28.7386C58.3545 23.7582 60.9325 21.3234 64.8555 21.3234C65.6774 21.2865 66.4994 21.434 67.284 21.7292ZM67.284 33.4607V22.5039C66.873 22.135 66.3126 21.9874 65.7522 22.0243C64.2203 22.0612 63.2863 24.3485 63.2863 28.3697C63.2863 31.985 63.9588 34.0141 65.9763 33.9403C66.462 33.9403 66.9104 33.7927 67.284 33.4607ZM79.6508 21.3971L80.1365 21.434V34.1616L81.4069 34.8626V35.416H74.1213V34.8626L75.4289 34.1616V23.4262L73.8597 22.799V22.3563L79.6508 21.3971ZM80.1739 17.9662C80.1366 19.2943 79.0157 20.3273 77.6707 20.2904C76.774 20.3273 75.952 19.8846 75.5037 19.1468C75.0553 18.4089 75.0553 17.4866 75.5037 16.7119C75.952 15.9741 76.774 15.5314 77.6707 15.5683C79.053 15.5314 80.1739 16.6012 80.1739 17.9662ZM96.5385 34.1616V23.3155L95.0066 22.799V22.2825L100.611 21.2496L101.171 21.2865V22.9097H101.321C102.666 21.8029 104.347 21.1758 106.103 21.1758C108.532 21.1758 109.615 22.3194 109.615 24.865V34.1616L110.923 34.8995V35.416H103.637V34.8626L104.945 34.1616V25.0863C104.945 23.6844 104.347 23.131 103.189 23.131C102.479 23.0942 101.807 23.3155 101.283 23.7213V34.1248L102.554 34.8257V35.416H95.2682V34.8626L96.5385 34.1616ZM88.6177 27.3367V25.529C88.6177 22.799 88.0199 21.9136 86.3013 21.9136C86.1145 21.9136 85.9277 21.9505 85.7035 21.9505L82.6398 26.0455H82.2288V22.2825C83.8727 21.7292 85.5914 21.434 87.3474 21.3971C91.0836 21.3971 93.2506 22.4301 93.2506 25.4921V34.3461L94.5957 34.6781V35.047C93.7363 35.4897 92.8023 35.6742 91.8309 35.6742C90.0001 35.6742 89.1034 35.0839 88.6925 34.0879H88.5804C87.7958 35.1208 86.6749 35.7111 84.9563 35.7111C82.7519 35.7111 81.22 34.3461 81.22 31.985C81.22 29.6978 82.6772 28.4434 85.5914 27.8901L88.6177 27.3367ZM88.6177 33.4607V28.0007L87.6837 28.0745C86.2266 28.1852 85.7035 29.1075 85.7035 31.1734C85.7035 33.3869 86.4507 33.9772 87.4595 33.9772C87.9079 33.9772 88.3188 33.8296 88.6177 33.4607ZM41.3174 27.3367V25.529C41.3174 22.799 40.7196 21.9136 39.0009 21.9136C38.8141 21.9136 38.6273 21.9505 38.4031 21.9505L35.3394 26.0455H34.9285V22.2825C36.5724 21.7292 38.291 21.434 40.0471 21.3971C43.7833 21.3971 45.9503 22.4301 45.9503 25.4921V34.3461L47.2953 34.6781V35.047C46.436 35.4897 45.5019 35.6742 44.5305 35.6742C42.6998 35.6742 41.8031 35.0839 41.3921 34.0879H41.28C40.4954 35.1208 39.3745 35.7111 37.6559 35.7111C35.4515 35.7111 33.9197 34.3461 33.9197 31.985C33.9197 29.6978 35.3394 28.4434 38.291 27.8901L41.3174 27.3367ZM41.3174 33.4607V28.0007L40.3833 28.0745C38.9262 28.1852 38.4031 29.1075 38.4031 31.1734C38.4031 33.3869 39.1504 33.9772 40.1591 33.9772C40.5701 33.9772 41.0185 33.8296 41.3174 33.4607Z" fill="#5D5973"/>
</g>
<defs>
<clipPath id="clip0_1_23005">
<rect width="110.25" height="36" fill="white" transform="translate(0.75)"/>
</clipPath>
</defs>
</svg>
